<svg version="1.1" xmlns="http://www.w3.org/2000/svg" viewBox="0 0 1194.5997619628906 428" width="1194.5997619628906" height="428">
  <!-- svg-source:excalidraw -->
  
  <defs>
    <style class="style-fonts">
      @font-face {
        font-family: "Virgil";
        src: url("https://file%2B.vscode-resource.vscode-cdn.net/home/marcos/.vscode/extensions/pomdtr.excalidraw-editor-3.7.4/public//dist/excalidraw-assets/Virgil.woff2");
      }
      @font-face {
        font-family: "Cascadia";
        src: url("https://file%2B.vscode-resource.vscode-cdn.net/home/marcos/.vscode/extensions/pomdtr.excalidraw-editor-3.7.4/public//dist/excalidraw-assets/Cascadia.woff2");
      }
      @font-face {
        font-family: "Assistant";
        src: url("https://file%2B.vscode-resource.vscode-cdn.net/home/marcos/.vscode/extensions/pomdtr.excalidraw-editor-3.7.4/public//dist/excalidraw-assets/Assistant-Regular.woff2");
      }
    </style>
    
  </defs>
  <g stroke-linecap="round" transform="translate(37 67) rotate(0 425 175.5)"><path d="M-1.57 0.64 L848.7 1.81 L851.63 349.29 L1.3 352.94" stroke="none" stroke-width="0" fill="#e9ecef"></path><path d="M0 0 C170.95 -0.49, 341.15 0.1, 850 0 M850 0 C851.69 132.18, 851.55 263.12, 850 351 M850 351 C520.01 350, 190.02 350.29, 0 351 M0 351 C-0.71 265.25, -1.03 181.6, 0 0" stroke="#1e1e1e" stroke-width="1.5" fill="none" stroke-dasharray="8 9"></path></g><g stroke-linecap="round" transform="translate(26 53) rotate(0 425 175.5)"><path d="M-1.15 -1.36 L851.92 -0.83 L850.33 351.36 L0.5 350.91" stroke="none" stroke-width="0" fill="#e9ecef"></path><path d="M0 0 C329.9 2.59, 659.68 2.56, 850 0 M850 0 C850.93 118.71, 849.64 238.64, 850 351 M850 351 C652.99 351.4, 455.22 351.24, 0 351 M0 351 C0.39 249.17, -0.34 150.49, 0 0" stroke="#1e1e1e" stroke-width="1.5" fill="none" stroke-dasharray="8 9"></path></g><g stroke-linecap="round" transform="translate(10 39) rotate(0 425 175.5)"><path d="M1.9 -1.51 L849.69 1.05 L849.17 352.85 L-1.44 352.53" stroke="none" stroke-width="0" fill="#ffffff"></path><path d="M0 0 C304.11 2.79, 608.91 3.03, 850 0 M850 0 C851.89 73.98, 850.56 150.68, 850 351 M850 351 C659.87 349.83, 470.03 349.85, 0 351 M0 351 C-1.51 236.22, -0.03 123.05, 0 0" stroke="#1e1e1e" stroke-width="1.5" fill="none" stroke-dasharray="8 9"></path></g><g stroke-linecap="round" transform="translate(178 66) rotate(0 32 34)"><path d="M40.12 1.1 C45.86 2.16, 52.59 7.7, 56.49 12.72 C60.38 17.75, 63.18 24.6, 63.49 31.24 C63.8 37.88, 61.68 46.97, 58.35 52.56 C55.02 58.15, 49.18 62.25, 43.52 64.76 C37.85 67.27, 30.37 69.22, 24.35 67.61 C18.33 65.99, 11.47 60.32, 7.39 55.07 C3.31 49.82, 0.15 42.69, -0.12 36.11 C-0.39 29.53, 2.23 21.28, 5.77 15.59 C9.31 9.9, 15.36 4.36, 21.1 1.98 C26.85 -0.4, 36.71 1.27, 40.23 1.31 C43.76 1.36, 42.43 1.82, 42.25 2.26 M42.15 0.82 C48.26 1.93, 55.07 7.96, 58.54 13.24 C62.01 18.52, 63.08 25.64, 62.95 32.48 C62.82 39.32, 61.32 48.55, 57.75 54.3 C54.19 60.05, 47.15 64.88, 41.55 66.97 C35.95 69.06, 29.88 68.85, 24.17 66.83 C18.46 64.82, 11.26 60.27, 7.28 54.89 C3.31 49.51, 0.38 41.43, 0.32 34.54 C0.27 27.65, 3.35 19, 6.96 13.53 C10.56 8.06, 16.14 3.5, 21.95 1.72 C27.75 -0.07, 38.9 2.76, 41.78 2.81 C44.66 2.85, 39.38 1.5, 39.22 2" stroke="none" stroke-width="0" fill="#343a40"></path><path d="M22.05 2.41 C27.43 -0.02, 34.66 -0.33, 40.67 1.35 C46.67 3.03, 54.35 7.09, 58.09 12.51 C61.82 17.93, 63.17 26.95, 63.07 33.84 C62.98 40.74, 60.72 48.66, 57.5 53.87 C54.29 59.08, 49.62 62.82, 43.77 65.11 C37.93 67.4, 28.67 69.24, 22.44 67.63 C16.22 66.02, 10.07 60.85, 6.4 55.44 C2.72 50.03, 0.6 41.93, 0.37 35.18 C0.15 28.43, 0.94 20.7, 5.04 14.94 C9.15 9.18, 20.7 2.84, 24.98 0.62 C29.27 -1.6, 30.47 1.03, 30.74 1.6 M31.37 -0.05 C37.49 -0.33, 45.6 3.98, 50.63 7.82 C55.65 11.66, 59.47 16.72, 61.5 22.97 C63.54 29.23, 64.56 38.95, 62.83 45.35 C61.09 51.75, 56.02 57.48, 51.09 61.35 C46.17 65.23, 39.46 68.65, 33.28 68.58 C27.11 68.52, 19.13 64.83, 14.04 60.95 C8.94 57.07, 4.63 51.61, 2.7 45.29 C0.78 38.97, 0.84 29.52, 2.48 23.03 C4.12 16.54, 7.64 10.05, 12.56 6.36 C17.47 2.66, 28.83 1.79, 31.97 0.84 C35.12 -0.1, 31.35 0.2, 31.4 0.67" stroke="#2f9e44" stroke-width="2" fill="none"></path></g><g stroke-linecap="round"><g transform="translate(235 133) rotate(0 48 75)"><path d="M-0.83 0.28 C15.03 25.4, 78.77 126.16, 94.99 151.06 M0.94 -0.61 C17.18 24.15, 81.33 124.25, 97.17 149.49" stroke="#1971c2" stroke-width="2" fill="none"></path></g></g><mask></mask><g stroke-linecap="round" transform="translate(325 287) rotate(0 32 34)"><path d="M32.51 -0.5 C38.37 -0.78, 45.87 3.51, 50.85 7.53 C55.82 11.56, 60.44 17.22, 62.35 23.65 C64.27 30.08, 64.39 39.82, 62.34 46.11 C60.28 52.4, 55.26 57.78, 50.01 61.4 C44.77 65.02, 36.98 67.98, 30.86 67.85 C24.74 67.72, 18.04 64.74, 13.28 60.61 C8.51 56.49, 4.29 49.45, 2.27 43.1 C0.25 36.74, -0.87 28.71, 1.15 22.49 C3.17 16.28, 8.2 9.53, 14.38 5.81 C20.56 2.09, 33.08 0.61, 38.24 0.2 C43.4 -0.2, 45.17 2.57, 45.36 3.38 M25.73 0.12 C31.18 -1.18, 40 1.68, 45.54 4.88 C51.09 8.09, 55.83 13.64, 59.01 19.36 C62.19 25.09, 65.26 32.81, 64.64 39.23 C64.02 45.64, 59.81 53.21, 55.29 57.83 C50.78 62.44, 43.56 66.04, 37.54 66.9 C31.52 67.75, 24.67 65.88, 19.17 62.95 C13.66 60.02, 7.46 54.75, 4.48 49.32 C1.51 43.9, 0.77 36.94, 1.32 30.42 C1.87 23.89, 3.39 14.95, 7.79 10.16 C12.18 5.37, 24.62 3.08, 27.68 1.66 C30.74 0.25, 26.22 1.52, 26.14 1.67" stroke="none" stroke-width="0" fill="#343a40"></path><path d="M39.27 0.05 C45.09 1.03, 50.82 6.85, 54.75 12.01 C58.68 17.17, 61.85 24.68, 62.85 31 C63.85 37.33, 63.79 44.13, 60.74 49.95 C57.7 55.78, 50.48 62.97, 44.56 65.96 C38.64 68.96, 31.19 69.4, 25.21 67.9 C19.23 66.41, 12.95 62.03, 8.7 57.01 C4.45 51.99, 0.57 44.45, -0.3 37.8 C-1.17 31.15, 0.24 22.77, 3.49 17.12 C6.74 11.46, 12.62 6.42, 19.19 3.89 C25.76 1.35, 38.39 1.98, 42.9 1.92 C47.41 1.85, 46.45 3.04, 46.27 3.49 M30.49 -0.68 C36.57 -1.33, 45.46 2.95, 50.82 6.85 C56.19 10.75, 60.48 16.42, 62.68 22.71 C64.88 28.99, 65.78 38.22, 64.04 44.55 C62.29 50.89, 57.26 56.66, 52.21 60.72 C47.15 64.78, 40 68.81, 33.71 68.94 C27.43 69.08, 19.94 65.52, 14.48 61.53 C9.03 57.54, 3.18 51.11, 0.97 45 C-1.24 38.89, -0.62 31.24, 1.22 24.87 C3.06 18.51, 6.94 10.91, 12.01 6.82 C17.08 2.73, 28.38 1.58, 31.61 0.31 C34.85 -0.95, 31.32 -1.44, 31.43 -0.75" stroke="#2f9e44" stroke-width="2" fill="none"></path></g><g stroke-linecap="round"><g transform="translate(180 135) rotate(0 -43.5 50.5)"><path d="M0.49 -0.33 C-13.84 16.49, -72.29 85.25, -87 101.96 M-0.71 -1.54 C-15.11 15.47, -73.85 83.3, -87.95 100.33" stroke="#1971c2" stroke-width="2" fill="none"></path></g></g><mask></mask><g stroke-linecap="round" transform="translate(38 240) rotate(0 32 34)"><path d="M23.48 0.31 C29.29 -1.71, 37.9 0.52, 43.8 2.96 C49.7 5.39, 55.56 9.44, 58.89 14.91 C62.22 20.39, 63.97 29.07, 63.76 35.79 C63.55 42.5, 61.4 50.11, 57.63 55.22 C53.86 60.32, 47.46 64.69, 41.14 66.43 C34.81 68.17, 25.63 68, 19.69 65.65 C13.75 63.29, 8.92 58, 5.5 52.3 C2.08 46.59, -1.23 38.09, -0.85 31.42 C-0.47 24.76, 3 17.31, 7.77 12.29 C12.55 7.28, 24.14 3.1, 27.79 1.32 C31.44 -0.45, 29.71 1.33, 29.66 1.63 M27.03 1.23 C33.19 -0.12, 43.02 1.47, 48.79 4.58 C54.56 7.69, 59.16 13.97, 61.64 19.9 C64.12 25.83, 64.75 33.89, 63.65 40.18 C62.56 46.47, 59.6 53.09, 55.07 57.64 C50.54 62.18, 42.79 66.22, 36.47 67.45 C30.15 68.69, 23 68.29, 17.17 65.06 C11.33 61.83, 4.04 54.2, 1.44 48.08 C-1.16 41.97, 0.19 34.82, 1.57 28.38 C2.94 21.94, 5.22 14.34, 9.68 9.44 C14.15 4.54, 25.05 0.48, 28.34 -1.03 C31.63 -2.54, 29.51 -0.54, 29.44 0.38" stroke="none" stroke-width="0" fill="#343a40"></path><path d="M20.69 2.58 C26.5 -0.2, 36.32 -1.38, 42.37 0.62 C48.41 2.62, 53.43 9, 56.98 14.58 C60.53 20.16, 63.42 27.57, 63.68 34.09 C63.94 40.61, 62.17 48.32, 58.53 53.68 C54.89 59.04, 47.97 64.1, 41.86 66.23 C35.75 68.36, 27.72 68.27, 21.87 66.44 C16.02 64.62, 10.36 60.59, 6.77 55.27 C3.17 49.95, 0.45 41.46, 0.3 34.51 C0.14 27.57, 1.2 19.4, 5.84 13.61 C10.48 7.81, 23.4 1.93, 28.13 -0.24 C32.86 -2.42, 34.04 0.02, 34.21 0.56 M25.18 0.63 C31.05 -1.27, 40.05 0.71, 45.92 3.27 C51.79 5.84, 57.2 10.24, 60.39 16.01 C63.58 21.77, 65.62 31.21, 65.07 37.88 C64.51 44.54, 61.47 51.11, 57.03 55.98 C52.6 60.84, 44.75 65.39, 38.46 67.09 C32.18 68.78, 25.11 68.75, 19.34 66.15 C13.57 63.56, 7.01 57.33, 3.83 51.53 C0.65 45.74, -0.4 38.25, 0.26 31.38 C0.92 24.51, 3.56 15.19, 7.77 10.29 C11.98 5.39, 22.47 3.36, 25.51 1.97 C28.56 0.57, 26.05 1.59, 26.06 1.93" stroke="#2f9e44" stroke-width="2" fill="none"></path></g><g stroke-linecap="round"><g transform="translate(310 322) rotate(0 -100.5 -17)"><path d="M-0.79 -1.09 C-34.11 -7.11, -166.7 -29.85, -199.92 -35.15 M1 0.95 C-32.39 -5.05, -166.73 -28.29, -200.3 -34.22" stroke="#1971c2" stroke-width="2" fill="none"></path></g></g><mask></mask><g transform="translate(273 88) rotate(0 30.03997039794922 12.5)"><text x="0" y="0" font-family="Virgil, Segoe UI Emoji" font-size="20px" fill="#2f9e44" text-anchor="start" style="white-space: pre;" direction="ltr" dominant-baseline="text-before-edge">object</text></g><g transform="translate(319 191) rotate(0 47.17994689941406 12.5)"><text x="0" y="0" font-family="Virgil, Segoe UI Emoji" font-size="20px" fill="#1971c2" text-anchor="start" style="white-space: pre;" direction="ltr" dominant-baseline="text-before-edge">structure</text></g><g stroke-linecap="round"><g transform="translate(268 123) rotate(0 40 0)"><path d="M0.9 1.13 C13.87 1.2, 65.56 -0.49, 78.94 -0.74 M-0.09 0.68 C13.15 0.99, 67.57 0.39, 81.09 0.41" stroke="#2f9e44" stroke-width="2" fill="none"></path></g></g><mask></mask><g stroke-linecap="round"><g transform="translate(317 219) rotate(0 48.5 0)"><path d="M0.72 1.08 C16.99 1.21, 81.31 0.78, 97.29 0.6 M-0.36 0.6 C15.81 0.39, 80.49 -1.33, 96.49 -1.21" stroke="#1971c2" stroke-width="2" fill="none"></path></g></g><mask></mask><g transform="translate(30 10) rotate(0 58.59992980957031 12.5)"><text x="0" y="0" font-family="Virgil, Segoe UI Emoji" font-size="20px" fill="#1e1e1e" text-anchor="start" style="white-space: pre;" direction="ltr" dominant-baseline="text-before-edge">atomic fact</text></g><g stroke-linecap="round" transform="translate(525 90) rotate(0 23 24.5)"><path d="M25.09 0.06 C29.7 0.24, 35.23 3.69, 38.72 7.4 C42.21 11.11, 45.58 17.21, 46.04 22.31 C46.5 27.41, 44.29 33.64, 41.46 38.02 C38.63 42.39, 33.81 47.12, 29.07 48.57 C24.33 50.01, 17.55 48.92, 13.02 46.67 C8.49 44.43, 3.98 39.77, 1.91 35.12 C-0.16 30.46, -0.75 23.9, 0.59 18.73 C1.92 13.56, 5.69 7.17, 9.91 4.12 C14.13 1.07, 22.94 0.98, 25.92 0.42 C28.89 -0.14, 27.72 0.32, 27.75 0.74 M23.25 0.58 C27.88 0.39, 33.5 2.85, 37.28 6.1 C41.07 9.36, 44.94 15.16, 45.96 20.13 C46.98 25.1, 45.79 31.47, 43.41 35.93 C41.03 40.38, 36.23 44.96, 31.69 46.87 C27.16 48.78, 20.9 49, 16.18 47.39 C11.45 45.78, 5.91 41.74, 3.35 37.21 C0.78 32.68, 0.11 25.51, 0.79 20.22 C1.47 14.92, 3.84 8.93, 7.44 5.46 C11.03 1.99, 19.77 0.14, 22.36 -0.6 C24.95 -1.34, 22.85 0.52, 22.98 1.02" stroke="none" stroke-width="0" fill="#343a40"></path><path d="M20.6 -0.16 C25.14 -0.96, 31.69 0.87, 35.85 3.97 C40.01 7.07, 44.24 13.27, 45.57 18.42 C46.9 23.58, 45.91 30.28, 43.83 34.9 C41.76 39.53, 37.55 44, 33.12 46.18 C28.69 48.37, 22.07 49.2, 17.25 48 C12.44 46.8, 7.11 43.28, 4.22 38.98 C1.33 34.69, -0.48 27.47, -0.09 22.22 C0.3 16.98, 2.94 11.22, 6.57 7.53 C10.19 3.83, 19 1.19, 21.66 0.05 C24.32 -1.08, 22.45 0.38, 22.53 0.7 M19.04 0.04 C23.58 -1.13, 30.57 0.09, 34.89 2.7 C39.21 5.32, 43.35 10.66, 44.97 15.73 C46.58 20.8, 46.42 28.25, 44.58 33.13 C42.74 38.01, 38.26 42.35, 33.92 45 C29.59 47.65, 23.2 49.84, 18.55 49.02 C13.9 48.2, 9.12 44.12, 6.04 40.07 C2.95 36.03, 0.18 29.87, 0.05 24.76 C-0.08 19.64, 2.09 13.53, 5.26 9.36 C8.44 5.19, 16.74 1.25, 19.1 -0.25 C21.45 -1.75, 19.3 -0.07, 19.4 0.36" stroke="#2f9e44" stroke-width="2" fill="none"></path></g><g stroke-linecap="round"><g transform="translate(765 156) rotate(0 0 45.5)"><path d="M-0.4 -0.57 C-0.4 14.59, 0.84 75.85, 0.73 91.15 M1.6 1.75 C1.43 17.11, 0.21 77.62, 0.17 92.76" stroke="#1971c2" stroke-width="2" fill="none"></path></g></g><mask></mask><g stroke-linecap="round"><g transform="translate(552 150) rotate(0 0 45)"><path d="M-0.61 -0.25 C-0.44 14.93, -0.14 75.05, -0.1 89.91 M1.27 -1.43 C1.37 14.05, -0.67 76.22, -1.1 91.4" stroke="#1971c2" stroke-width="2" fill="none"></path></g></g><mask></mask><g stroke-linecap="round" transform="translate(738 91) rotate(0 27.5 25.5)"><path d="M27.19 0.28 C32.76 -0.4, 39.22 1.33, 43.75 4.86 C48.28 8.38, 53.19 15.99, 54.36 21.43 C55.53 26.88, 53.69 32.88, 50.76 37.55 C47.84 42.21, 42.22 47.3, 36.82 49.44 C31.42 51.59, 23.75 52.34, 18.36 50.42 C12.97 48.49, 7.56 42.61, 4.48 37.88 C1.41 33.14, -1.03 27.33, -0.07 22.01 C0.9 16.69, 4.97 9.48, 10.27 5.94 C15.57 2.39, 27.62 1.48, 31.74 0.75 C35.87 0.02, 35.31 1.1, 35.02 1.56 M38.54 2.33 C44.05 3.6, 49.62 7.94, 52.43 12.51 C55.25 17.08, 56.52 24.32, 55.42 29.75 C54.33 35.18, 50.66 41.51, 45.88 45.1 C41.1 48.69, 32.69 51.53, 26.73 51.3 C20.76 51.06, 14.67 47.56, 10.09 43.68 C5.5 39.8, 0.31 33.51, -0.77 28.03 C-1.86 22.55, 0.17 15.07, 3.57 10.78 C6.97 6.49, 13.78 3.8, 19.63 2.31 C25.48 0.82, 35.84 1.8, 38.68 1.85 C41.52 1.9, 37.2 2.26, 36.67 2.62" stroke="none" stroke-width="0" fill="#343a40"></path><path d="M21.1 1.65 C26.48 0.16, 33.64 0.68, 38.95 2.7 C44.27 4.72, 50.43 8.92, 52.98 13.75 C55.53 18.58, 55.88 26.13, 54.26 31.67 C52.64 37.22, 48.2 43.9, 43.29 47.02 C38.38 50.13, 30.71 50.87, 24.82 50.38 C18.92 49.89, 11.98 47.85, 7.92 44.09 C3.86 40.32, 0.81 33.23, 0.44 27.77 C0.08 22.3, 1.93 16.01, 5.74 11.3 C9.54 6.59, 20.29 1.15, 23.28 -0.5 C26.26 -2.16, 23.86 0.78, 23.64 1.38 M22.08 -0.02 C27.29 -1.22, 34.97 1.03, 39.89 3.4 C44.8 5.77, 49.43 9.12, 51.57 14.18 C53.72 19.23, 54.08 28.35, 52.77 33.73 C51.46 39.11, 48.46 43.54, 43.7 46.45 C38.94 49.36, 30.31 51.61, 24.23 51.2 C18.15 50.79, 11.19 48.27, 7.21 44 C3.23 39.72, 0.48 31.36, 0.33 25.55 C0.18 19.74, 2.67 13.43, 6.29 9.14 C9.9 4.85, 19.37 1.05, 22.02 -0.19 C24.67 -1.43, 22.13 1.1, 22.2 1.7" stroke="#2f9e44" stroke-width="2" fill="none"></path></g><g stroke-linecap="round" transform="translate(619 67) rotate(0 23.5 23.5)"><path d="M27.23 0 C31.96 0.62, 38.31 5.03, 41.53 8.95 C44.76 12.87, 46.65 18.55, 46.58 23.52 C46.5 28.5, 44.31 34.88, 41.09 38.8 C37.88 42.72, 32.17 46.29, 27.3 47.05 C22.43 47.81, 16.23 45.93, 11.88 43.36 C7.53 40.79, 2.84 36.31, 1.18 31.61 C-0.48 26.9, 0.08 19.85, 1.91 15.14 C3.75 10.43, 7.81 5.79, 12.18 3.35 C16.56 0.91, 25.5 0.82, 28.17 0.5 C30.84 0.18, 28.22 1.08, 28.21 1.43 M28.5 -0.04 C33.27 0.49, 39.19 4.35, 42.4 8.33 C45.6 12.31, 47.92 18.7, 47.72 23.85 C47.52 29, 44.58 35.47, 41.21 39.22 C37.83 42.97, 32.57 45.72, 27.48 46.36 C22.4 46.99, 15.14 45.7, 10.71 43.04 C6.28 40.37, 2.38 34.97, 0.91 30.37 C-0.55 25.77, -0.02 20.02, 1.94 15.43 C3.91 10.84, 8.42 5.32, 12.71 2.85 C17 0.38, 25.25 0.95, 27.7 0.61 C30.16 0.28, 27.46 0.54, 27.44 0.82" stroke="none" stroke-width="0" fill="#343a40"></path><path d="M18.91 0.6 C23.53 -0.75, 30.71 0.08, 35.14 2.46 C39.58 4.83, 43.75 10.01, 45.52 14.84 C47.28 19.67, 47.4 26.68, 45.72 31.44 C44.05 36.19, 39.8 40.77, 35.48 43.36 C31.15 45.95, 24.7 47.71, 19.78 46.98 C14.86 46.25, 9.19 42.76, 5.96 38.95 C2.73 35.15, 0.44 29.27, 0.4 24.15 C0.36 19.04, 2.57 12.18, 5.7 8.26 C8.83 4.35, 16.85 1.93, 19.2 0.68 C21.54 -0.57, 19.7 0.39, 19.78 0.76 M19.18 0.7 C23.66 -0.52, 30.16 -0.13, 34.46 2.37 C38.77 4.86, 43.04 10.87, 45.01 15.67 C46.97 20.46, 47.86 26.42, 46.27 31.14 C44.67 35.85, 39.92 41.27, 35.46 43.95 C31 46.64, 24.47 48.21, 19.52 47.23 C14.57 46.26, 8.96 42.12, 5.77 38.11 C2.57 34.1, 0.38 28.19, 0.37 23.19 C0.36 18.19, 2.52 11.87, 5.72 8.12 C8.93 4.37, 17.3 1.86, 19.61 0.67 C21.91 -0.52, 19.62 0.58, 19.56 0.98" stroke="#2f9e44" stroke-width="2" fill="none"></path></g><g stroke-linecap="round" transform="translate(527 256) rotate(0 23 24.5)"><path d="M18.4 0.75 C22.95 -0.62, 29.18 0.1, 33.44 2.6 C37.7 5.09, 42.06 10.79, 43.95 15.73 C45.85 20.67, 46.33 27.29, 44.81 32.23 C43.3 37.17, 38.95 42.65, 34.85 45.37 C30.74 48.1, 24.93 49.38, 20.16 48.59 C15.4 47.81, 9.65 44.48, 6.27 40.68 C2.9 36.89, 0.08 31.07, -0.08 25.82 C-0.25 20.56, 2.2 13.36, 5.27 9.16 C8.33 4.96, 15.99 1.94, 18.3 0.61 C20.61 -0.73, 19.11 0.79, 19.15 1.12 M27.68 1.17 C32.38 1.84, 37.66 5.24, 40.82 9.32 C43.99 13.4, 46.85 20.44, 46.68 25.65 C46.52 30.86, 43.34 36.83, 39.85 40.58 C36.37 44.34, 30.6 47.39, 25.79 48.2 C20.99 49.01, 14.98 48.03, 11.01 45.46 C7.03 42.9, 3.44 37.84, 1.94 32.8 C0.43 27.76, 0.42 20.23, 1.99 15.21 C3.56 10.19, 7.11 5.08, 11.36 2.7 C15.61 0.33, 24.91 1.3, 27.48 0.97 C30.05 0.63, 26.75 0.44, 26.77 0.68" stroke="none" stroke-width="0" fill="#343a40"></path><path d="M22.32 -0.38 C27.03 -0.88, 33.68 1.64, 37.54 5.07 C41.41 8.49, 44.53 14.93, 45.51 20.16 C46.49 25.39, 45.74 31.83, 43.41 36.45 C41.08 41.07, 36.28 46.01, 31.54 47.88 C26.8 49.74, 19.7 49.47, 14.96 47.65 C10.22 45.82, 5.5 41.5, 3.09 36.91 C0.67 32.31, -0.4 25.26, 0.49 20.08 C1.38 14.9, 4.61 9.22, 8.43 5.82 C12.26 2.42, 20.79 0.62, 23.45 -0.3 C26.1 -1.23, 24.4 -0.21, 24.36 0.27 M17.77 1.16 C22.22 -0.12, 29.9 0.74, 34.22 3.12 C38.54 5.51, 42.01 10.6, 43.68 15.45 C45.35 20.3, 45.83 27.15, 44.27 32.21 C42.71 37.28, 38.55 43.19, 34.33 45.82 C30.1 48.46, 23.79 48.9, 18.93 48.03 C14.07 47.17, 8.2 44.56, 5.16 40.65 C2.11 36.74, 0.68 29.87, 0.66 24.57 C0.64 19.28, 2.15 12.94, 5.04 8.91 C7.94 4.87, 15.87 1.65, 18.01 0.35 C20.16 -0.95, 17.86 0.65, 17.93 1.08" stroke="#2f9e44" stroke-width="2" fill="none"></path></g><g stroke-linecap="round" transform="translate(627 320) rotate(0 24.5 27.5)"><path d="M31.42 0.73 C36.31 1.91, 42.4 7.67, 45.36 12.58 C48.31 17.48, 49.63 24.46, 49.16 30.14 C48.7 35.82, 46.41 42.43, 42.56 46.64 C38.71 50.85, 31.51 54.81, 26.05 55.41 C20.59 56.01, 14.01 53.53, 9.78 50.22 C5.54 46.92, 1.74 41.25, 0.66 35.57 C-0.43 29.9, 1.01 21.75, 3.26 16.19 C5.51 10.63, 9.3 4.54, 14.16 2.22 C19.03 -0.1, 29.24 2.13, 32.46 2.29 C35.69 2.45, 33.63 2.74, 33.5 3.2 M24.17 0.83 C28.89 0, 34.7 2.35, 38.59 5.94 C42.47 9.54, 46.04 16.88, 47.47 22.42 C48.91 27.96, 49.33 34.24, 47.21 39.18 C45.09 44.12, 39.78 49.67, 34.77 52.06 C29.76 54.45, 22.35 55.18, 17.15 53.54 C11.95 51.9, 6.49 47.19, 3.58 42.25 C0.67 37.31, -1.11 29.86, -0.32 23.89 C0.48 17.93, 4.34 10.46, 8.36 6.46 C12.38 2.45, 21.21 1.07, 23.8 -0.14 C26.38 -1.35, 23.93 -1.53, 23.86 -0.81" stroke="none" stroke-width="0" fill="#343a40"></path><path d="M28.53 -0.28 C33.38 0.34, 38.95 5.5, 42.5 9.86 C46.06 14.22, 49.75 20.08, 49.86 25.89 C49.98 31.71, 46.57 39.89, 43.19 44.74 C39.81 49.58, 34.79 53.87, 29.59 54.96 C24.4 56.04, 16.52 54.21, 12.02 51.24 C7.52 48.28, 4.36 42.51, 2.59 37.16 C0.81 31.81, -0.26 24.67, 1.37 19.13 C3.01 13.59, 7.74 6.89, 12.41 3.94 C17.09 1, 26.28 1.96, 29.43 1.47 C32.58 0.97, 31.43 0.79, 31.3 0.95 M17.52 2.76 C22.21 0.36, 29.1 -0.72, 33.57 1 C38.04 2.73, 41.85 7.77, 44.33 13.12 C46.81 18.47, 49.34 27.32, 48.43 33.12 C47.52 38.91, 42.68 44.42, 38.87 47.92 C35.05 51.41, 30.32 53.73, 25.55 54.08 C20.79 54.43, 14.68 53.68, 10.28 50.01 C5.89 46.34, 0.38 37.94, -0.83 32.06 C-2.04 26.19, 0.33 19.95, 3.03 14.77 C5.73 9.6, 13.33 2.95, 15.37 1 C17.4 -0.95, 15.12 2.5, 15.25 3.08" stroke="#2f9e44" stroke-width="2" fill="none"></path></g><g stroke-linecap="round" transform="translate(740 257) rotate(0 27.5 25.5)"><path d="M16.47 2.09 C21.43 -0.14, 29.91 -0.69, 35.61 0.97 C41.31 2.62, 47.51 7.51, 50.66 12.02 C53.81 16.54, 55.17 22.51, 54.51 28.05 C53.86 33.6, 51 41.35, 46.74 45.31 C42.48 49.26, 34.87 51.8, 28.95 51.78 C23.04 51.76, 15.94 48.67, 11.27 45.18 C6.6 41.7, 2.33 36.19, 0.94 30.89 C-0.46 25.59, -0.48 18.43, 2.88 13.36 C6.23 8.29, 17.62 2.58, 21.05 0.47 C24.47 -1.65, 23.47 0.25, 23.44 0.69 M40.29 3.12 C45.45 5.05, 50.99 10.9, 53.43 15.74 C55.87 20.57, 56.71 26.85, 54.92 32.13 C53.13 37.42, 47.5 44.16, 42.71 47.45 C37.91 50.74, 31.68 52.55, 26.14 51.88 C20.61 51.22, 13.72 47.66, 9.49 43.45 C5.26 39.25, 1.37 31.97, 0.77 26.65 C0.17 21.33, 2.4 15.65, 5.89 11.51 C9.39 7.36, 16.37 3.04, 21.73 1.77 C27.09 0.49, 34.98 3.91, 38.06 3.87 C41.13 3.83, 40.1 1.57, 40.17 1.54" stroke="none" stroke-width="0" fill="#343a40"></path><path d="M31.62 1.04 C37.09 1.65, 43.69 4.98, 47.57 9.12 C51.46 13.26, 54.7 20.39, 54.9 25.9 C55.1 31.4, 52.3 37.94, 48.76 42.18 C45.22 46.42, 39.36 50.46, 33.69 51.35 C28.01 52.24, 19.95 50.4, 14.71 47.52 C9.46 44.65, 4.28 39.07, 2.23 34.1 C0.18 29.14, 0.64 22.75, 2.43 17.72 C4.22 12.7, 6.68 6.44, 12.96 3.95 C19.25 1.46, 34.44 2.03, 40.15 2.77 C45.87 3.51, 47.44 8, 47.24 8.37 M23.23 0.25 C28.69 -1.08, 36.79 -1.1, 41.83 1.84 C46.87 4.78, 51.46 12.36, 53.47 17.88 C55.49 23.41, 55.91 30.29, 53.93 34.98 C51.95 39.66, 46.53 43.23, 41.6 45.98 C36.66 48.73, 30.31 52.08, 24.34 51.48 C18.37 50.88, 9.83 46.75, 5.79 42.4 C1.74 38.05, 0.19 30.85, 0.09 25.37 C-0.01 19.89, 1.33 13.66, 5.18 9.53 C9.03 5.4, 20.19 1.92, 23.18 0.59 C26.17 -0.73, 23.26 1.08, 23.1 1.58" stroke="#2f9e44" stroke-width="2" fill="none"></path></g><g stroke-linecap="round" transform="translate(621 233) rotate(0 23.5 23.5)"><path d="M25.22 0.02 C29.94 0.23, 36.29 3.65, 39.88 7.12 C43.47 10.6, 46.25 15.89, 46.76 20.89 C47.26 25.88, 45.77 32.89, 42.93 37.09 C40.09 41.28, 34.53 44.69, 29.74 46.07 C24.95 47.45, 18.76 47.39, 14.21 45.38 C9.66 43.38, 4.75 38.7, 2.47 34.06 C0.19 29.42, -0.73 22.47, 0.53 17.55 C1.8 12.62, 5.69 7.32, 10.06 4.51 C14.43 1.7, 23.7 1.32, 26.76 0.68 C29.82 0.04, 28.39 0.32, 28.41 0.68 M28.2 0.88 C32.89 1.74, 38.73 5.51, 41.97 9.36 C45.21 13.21, 47.81 19.03, 47.62 23.98 C47.44 28.94, 44.32 35.38, 40.88 39.12 C37.44 42.85, 32 45.76, 26.99 46.39 C21.98 47.02, 15.06 45.32, 10.81 42.88 C6.56 40.44, 2.97 36.48, 1.49 31.73 C0 26.98, 0.02 19.12, 1.9 14.36 C3.78 9.6, 8.32 5.49, 12.75 3.15 C17.17 0.81, 25.99 0.63, 28.47 0.34 C30.94 0.05, 27.7 1.01, 27.6 1.41" stroke="none" stroke-width="0" fill="#343a40"></path><path d="M28.97 0.73 C33.71 1.59, 39.35 5.29, 42.41 9.33 C45.47 13.37, 47.57 19.96, 47.31 24.98 C47.05 30, 44.3 35.82, 40.85 39.44 C37.41 43.05, 31.69 46.02, 26.65 46.66 C21.61 47.31, 14.87 45.99, 10.62 43.3 C6.37 40.61, 2.6 35.33, 1.16 30.52 C-0.27 25.7, 0.14 19.08, 2 14.39 C3.85 9.7, 7.82 4.58, 12.32 2.37 C16.81 0.15, 25.95 1.28, 28.96 1.11 C31.96 0.95, 30.28 1, 30.34 1.39 M21.3 -0.42 C26.08 -1.07, 33.56 1.83, 37.75 4.81 C41.95 7.8, 45.43 12.62, 46.46 17.51 C47.5 22.4, 46.21 29.69, 43.97 34.15 C41.73 38.62, 37.59 42.24, 33.02 44.3 C28.44 46.35, 21.29 47.85, 16.51 46.49 C11.72 45.12, 7.13 40.35, 4.31 36.12 C1.48 31.89, -0.84 26.01, -0.45 21.12 C-0.06 16.24, 2.95 10.27, 6.64 6.81 C10.33 3.35, 19.13 1.3, 21.7 0.37 C24.26 -0.57, 21.9 0.8, 22.04 1.2" stroke="#2f9e44" stroke-width="2" fill="none"></path></g><g stroke-linecap="round"><g transform="translate(654 218) rotate(0 0 45.5)"><path d="M0.37 0.66 C0.47 15.68, 0.42 74.96, 0.34 90.16 M-0.9 -0.04 C-0.89 15.11, -0.42 76.25, -0.44 91.25" stroke="#1971c2" stroke-width="2" fill="none"></path></g></g><mask></mask><g stroke-linecap="round"><g transform="translate(644 124) rotate(0 0 50)"><path d="M0.92 1.19 C0.92 17.8, 0.22 82.44, 0.1 99.08 M-0.06 0.77 C-0.21 17.56, -0.73 83.72, -0.79 100.14" stroke="#1971c2" stroke-width="2" fill="none"></path></g></g><mask></mask><g stroke-linecap="round" transform="translate(625 154) rotate(0 24.5 27.5)"><path d="M17.33 1.66 C22.02 -0.08, 30.41 0.61, 35.15 2.86 C39.88 5.1, 43.59 9.68, 45.74 15.12 C47.89 20.57, 49.39 29.74, 48.05 35.52 C46.72 41.3, 42.09 46.55, 37.71 49.81 C33.32 53.06, 26.86 55.42, 21.72 55.07 C16.58 54.72, 10.39 52.05, 6.87 47.72 C3.35 43.38, 1.06 34.98, 0.59 29.05 C0.12 23.11, 0.26 17.01, 4.05 12.12 C7.84 7.23, 19.45 1.53, 23.33 -0.29 C27.22 -2.11, 27.48 0.67, 27.35 1.19 M15.19 3.04 C19.66 0.59, 28.02 0.42, 33.17 1.96 C38.33 3.49, 43.37 7.48, 46.13 12.27 C48.89 17.06, 50.41 24.79, 49.73 30.7 C49.05 36.61, 46.16 43.62, 42.06 47.72 C37.97 51.83, 30.49 55.24, 25.16 55.31 C19.84 55.37, 14.4 52.06, 10.11 48.14 C5.82 44.22, 0.69 37.64, -0.58 31.78 C-1.86 25.93, -0.37 17.82, 2.44 13.01 C5.26 8.2, 13.92 4.68, 16.3 2.91 C18.68 1.13, 16.84 2.05, 16.73 2.35" stroke="none" stroke-width="0" fill="#343a40"></path><path d="M19.56 -0.32 C24.63 -1.46, 32.72 1.25, 37.35 4.34 C41.98 7.43, 45.53 12.98, 47.33 18.22 C49.13 23.46, 49.87 30.33, 48.17 35.77 C46.46 41.2, 41.73 47.57, 37.1 50.82 C32.48 54.07, 25.68 56.27, 20.41 55.27 C15.15 54.27, 8.95 49.32, 5.52 44.81 C2.09 40.31, -0.24 34.04, -0.17 28.24 C-0.1 22.44, 1.74 14.63, 5.94 9.99 C10.15 5.35, 21.17 2.07, 25.08 0.39 C29 -1.28, 29.68 -0.55, 29.43 -0.05 M15.52 1.23 C20.05 -1.34, 27.24 -1.5, 32.11 0.43 C36.99 2.37, 42.19 8.06, 44.77 12.85 C47.35 17.63, 48.33 23.26, 47.6 29.14 C46.88 35.02, 43.79 43.91, 40.41 48.14 C37.03 52.36, 32.38 54.18, 27.33 54.5 C22.27 54.82, 14.56 53.28, 10.1 50.06 C5.63 46.83, 1.74 41.14, 0.53 35.14 C-0.68 29.14, 0.35 19.69, 2.83 14.05 C5.3 8.41, 13.27 3.33, 15.39 1.32 C17.5 -0.69, 15.37 1.31, 15.53 1.99" stroke="#2f9e44" stroke-width="2" fill="none"></path></g><g stroke-linecap="round"><g transform="translate(578 108) rotate(0 24.5 -7)"><path d="M0.06 0.03 C8.29 -2.18, 40.7 -11.22, 48.83 -13.62 M-0.57 -0.43 C7.61 -2.76, 40.15 -12.13, 48.31 -14.39" stroke="#1971c2" stroke-width="2" fill="none"></path></g></g><mask></mask><g stroke-linecap="round"><g transform="translate(682 171) rotate(0 39 -22.5)"><path d="M-0.4 -0.84 C12.62 -8.38, 65.18 -37.07, 78.1 -44.56 M1.59 1.34 C14.46 -6.63, 64.21 -38.75, 77.21 -46.45" stroke="#1971c2" stroke-width="2" fill="none"></path></g></g><mask></mask><g stroke-linecap="round"><g transform="translate(656 92) rotate(0 37.5 9)"><path d="M0.73 1.06 C13.4 3.85, 62.79 14.05, 75.25 16.91 M-0.35 0.57 C12.26 3.45, 61.88 14.69, 74.43 17.88" stroke="#1971c2" stroke-width="2" fill="none"></path></g></g><mask></mask><g stroke-linecap="round"><g transform="translate(553 116) rotate(0 31.5 26)"><path d="M-0.88 -0.64 C9.44 7.77, 51.25 42.96, 61.94 51.63 M0.86 1.64 C11.54 10.73, 53.79 44.52, 64.1 52.97" stroke="#1971c2" stroke-width="2" fill="none"></path></g></g><mask></mask><g stroke-linecap="round"><g transform="translate(559 285) rotate(0 31.5 26)"><path d="M0.27 -0.83 C10.57 7.57, 52.38 41.89, 62.76 50.83 M-1.05 1.35 C8.99 9.81, 51.26 43.5, 61.69 51.76" stroke="#1971c2" stroke-width="2" fill="none"></path></g></g><mask></mask><g stroke-linecap="round"><g transform="translate(664 259) rotate(0 33 9)"><path d="M-0.4 1 C10.52 3.93, 54.25 13.99, 65.5 16.98 M1.6 0.48 C12.31 3.58, 53.4 15.22, 64.29 17.98" stroke="#1971c2" stroke-width="2" fill="none"></path></g></g><mask></mask><g stroke-linecap="round"><g transform="translate(688 336) rotate(0 36.5 -24.5)"><path d="M-1.15 -0.06 C10.94 -8.16, 61.02 -40.53, 73.56 -48.72 M0.44 -1.13 C12.33 -9.61, 60.67 -42.89, 72.9 -50.69" stroke="#1971c2" stroke-width="2" fill="none"></path></g></g><mask></mask><g stroke-linecap="round"><g transform="translate(578 276) rotate(0 26 -11)"><path d="M-0.78 0.51 C8.06 -3.12, 43.21 -17.71, 52.15 -21.51 M1 -0.27 C9.79 -4.28, 42.69 -19.9, 51.28 -23.37" stroke="#1971c2" stroke-width="2" fill="none"></path></g></g><mask></mask><g stroke-linecap="round"><g transform="translate(906 52) rotate(0 32 99.5)"><path d="M0 0 C14.23 42.17, 25.22 84.2, 64 199 M0 0 C14.01 46.06, 29 91.42, 64 199" stroke="#1e1e1e" stroke-width="1" fill="none"></path></g></g><mask></mask><g stroke-linecap="round"><g transform="translate(906 410) rotate(0 32 -79.5)"><path d="M0 0 C25.98 -63.99, 51.88 -125.73, 64 -159 M0 0 C22.81 -55.53, 43.94 -111.03, 64 -159" stroke="#1e1e1e" stroke-width="1" fill="none"></path></g></g><mask></mask><g transform="translate(993 218) rotate(0 95.79988098144531 37.5)"><text x="0" y="0" font-family="Virgil, Segoe UI Emoji" font-size="20px" fill="#1e1e1e" text-anchor="start" style="white-space: pre;" direction="ltr" dominant-baseline="text-before-edge">picture</text><text x="0" y="25" font-family="Virgil, Segoe UI Emoji" font-size="20px" fill="#1e1e1e" text-anchor="start" style="white-space: pre;" direction="ltr" dominant-baseline="text-before-edge">i.e. model of reality</text><text x="0" y="50" font-family="Virgil, Segoe UI Emoji" font-size="20px" fill="#1e1e1e" text-anchor="start" style="white-space: pre;" direction="ltr" dominant-baseline="text-before-edge">also a fact</text></g></svg>