<svg id="svg" version="1.1" xmlns="http://www.w3.org/2000/svg" xmlns:xlink="http://www.w3.org/1999/xlink" width="400" height="299.6138996138996" viewBox="0, 0, 400,299.6138996138996"><g id="svgg"><path id="path0" d="M242.231 74.584 C 241.426 75.088,213.633 102.650,213.633 102.945 C 213.633 103.015,209.689 106.986,204.869 111.769 C 200.049 116.552,186.222 130.304,174.142 142.330 C 162.062 154.356,152.074 164.195,151.945 164.195 C 151.817 164.195,151.531 164.532,151.311 164.943 C 151.091 165.355,150.844 165.626,150.764 165.545 C 150.442 165.224,149.813 166.115,149.813 166.891 C 149.813 167.875,150.279 168.318,151.590 168.580 C 152.124 168.687,152.629 168.951,152.711 169.167 C 152.794 169.382,153.356 169.717,153.959 169.910 C 154.562 170.103,155.326 170.499,155.655 170.789 C 155.985 171.079,156.589 171.419,156.998 171.543 C 157.407 171.668,158.081 171.999,158.496 172.280 C 160.841 173.865,161.721 174.382,162.074 174.382 C 162.291 174.382,162.928 174.787,163.491 175.281 C 164.055 175.775,164.754 176.180,165.046 176.180 C 165.338 176.180,166.033 176.517,166.592 176.929 C 167.150 177.341,167.765 177.678,167.958 177.678 C 168.151 177.678,168.630 177.928,169.023 178.234 C 169.416 178.539,170.682 179.285,171.835 179.891 C 172.989 180.497,174.067 181.168,174.232 181.383 C 174.627 181.899,175.721 182.472,176.310 182.472 C 176.568 182.472,177.045 182.738,177.371 183.064 C 177.696 183.389,178.337 183.744,178.794 183.852 C 179.251 183.960,179.895 184.280,180.225 184.563 C 180.554 184.847,181.864 185.584,183.134 186.202 C 184.405 186.820,185.595 187.507,185.780 187.730 C 185.964 187.952,186.578 188.287,187.142 188.473 C 187.707 188.660,188.298 189.053,188.456 189.348 C 188.614 189.642,189.179 189.971,189.713 190.077 C 190.246 190.184,190.959 190.522,191.296 190.829 C 191.634 191.136,192.416 191.549,193.034 191.747 C 193.652 191.945,194.157 192.214,194.157 192.346 C 194.157 192.478,194.596 192.759,195.131 192.971 C 195.667 193.182,196.375 193.588,196.704 193.872 C 197.034 194.156,197.640 194.486,198.052 194.607 C 198.464 194.727,199.071 195.063,199.401 195.353 C 199.730 195.644,200.539 196.050,201.199 196.257 C 201.858 196.463,202.536 196.742,202.707 196.876 C 203.245 197.299,207.008 196.136,207.458 195.408 C 207.563 195.239,208.153 194.939,208.768 194.742 C 209.384 194.544,210.157 194.148,210.487 193.860 C 210.816 193.572,211.484 193.243,211.970 193.127 C 212.456 193.012,213.157 192.590,213.529 192.189 C 213.900 191.788,214.439 191.461,214.726 191.461 C 215.193 191.461,215.863 191.082,218.427 189.368 C 218.839 189.093,219.621 188.714,220.164 188.527 C 220.707 188.339,221.501 187.912,221.927 187.576 C 222.354 187.241,222.826 186.966,222.978 186.966 C 223.129 186.966,223.749 186.629,224.355 186.217 C 224.961 185.805,225.672 185.468,225.935 185.468 C 226.198 185.468,226.717 185.144,227.089 184.748 C 227.462 184.351,228.213 183.943,228.759 183.841 C 229.306 183.738,229.933 183.437,230.153 183.172 C 230.373 182.907,231.095 182.435,231.756 182.123 C 233.365 181.364,238.032 178.808,238.543 178.405 C 238.768 178.228,240.030 177.564,241.348 176.930 C 242.667 176.296,244.126 175.463,244.592 175.079 C 245.058 174.696,245.682 174.382,245.979 174.382 C 246.276 174.382,246.688 174.178,246.894 173.929 C 247.101 173.680,247.825 173.206,248.504 172.876 C 249.183 172.547,250.075 172.088,250.487 171.858 C 250.899 171.627,251.573 171.283,251.985 171.093 C 252.858 170.689,254.217 169.924,255.281 169.236 C 255.693 168.969,256.367 168.650,256.779 168.527 C 259.066 167.840,259.973 165.396,258.869 162.899 C 258.487 162.036,258.147 160.293,257.951 158.202 C 257.781 156.373,257.436 154.310,257.186 153.618 C 256.936 152.926,256.663 151.281,256.580 149.963 C 256.497 148.644,256.162 146.732,255.837 145.713 C 255.512 144.694,255.066 142.267,254.847 140.320 C 254.627 138.372,254.237 135.970,253.979 134.981 C 253.721 133.993,253.355 131.912,253.165 130.358 C 252.975 128.804,252.640 127.023,252.420 126.401 C 252.201 125.779,251.875 123.701,251.697 121.783 C 251.518 119.865,251.189 117.938,250.965 117.500 C 250.741 117.062,250.411 115.193,250.232 113.346 C 250.053 111.498,249.708 109.513,249.466 108.934 C 249.224 108.355,248.934 106.563,248.822 104.952 C 248.710 103.341,248.357 101.281,248.038 100.375 C 247.719 99.468,247.347 97.290,247.212 95.535 C 247.066 93.657,246.764 91.940,246.477 91.365 C 246.175 90.760,245.923 89.238,245.816 87.366 C 245.705 85.432,245.394 83.590,244.951 82.247 C 244.571 81.094,244.164 78.908,244.047 77.389 C 243.802 74.226,243.515 73.782,242.231 74.584 " stroke="none" fill="#ffcc01" fill-rule="evenodd"></path><path id="path1" d="M203.009 70.391 C 202.804 70.722,203.277 71.080,203.554 70.803 C 203.839 70.518,203.786 70.112,203.463 70.112 C 203.308 70.112,203.104 70.238,203.009 70.391 M207.249 71.802 C 207.010 72.041,207.280 72.509,207.658 72.509 C 207.813 72.509,207.940 72.307,207.940 72.060 C 207.940 71.597,207.587 71.465,207.249 71.802 M201.511 73.388 C 201.306 73.719,201.779 74.076,202.056 73.800 C 202.340 73.515,202.287 73.109,201.965 73.109 C 201.810 73.109,201.606 73.234,201.511 73.388 M199.850 76.619 C 199.850 77.368,199.888 77.394,200.335 76.947 C 200.602 76.680,200.729 76.314,200.617 76.134 C 200.249 75.539,199.850 75.791,199.850 76.619 M210.037 76.518 C 210.037 76.580,210.240 76.799,210.487 77.004 C 210.855 77.309,210.936 77.289,210.936 76.891 C 210.936 76.623,210.734 76.404,210.487 76.404 C 210.240 76.404,210.037 76.455,210.037 76.518 M198.352 78.377 C 198.352 78.906,198.997 78.814,199.182 78.258 C 199.248 78.063,199.087 77.903,198.826 77.903 C 198.566 77.903,198.352 78.116,198.352 78.377 M211.536 78.016 C 211.536 78.078,211.738 78.297,211.985 78.502 C 212.353 78.807,212.434 78.787,212.434 78.389 C 212.434 78.121,212.232 77.903,211.985 77.903 C 211.738 77.903,211.536 77.954,211.536 78.016 M213.333 79.683 C 213.333 80.185,213.865 80.309,214.042 79.848 C 214.146 79.577,214.041 79.401,213.773 79.401 C 213.531 79.401,213.333 79.528,213.333 79.683 M195.441 81.667 C 195.076 82.084,194.649 82.888,194.493 83.455 C 194.336 84.021,193.927 84.842,193.584 85.279 C 193.240 85.716,192.959 86.344,192.959 86.676 C 192.959 87.007,192.678 87.562,192.335 87.909 C 191.466 88.788,189.975 91.150,189.968 91.657 C 189.965 91.889,189.625 92.520,189.213 93.060 C 188.801 93.600,188.464 94.311,188.464 94.639 C 188.464 94.967,188.127 95.636,187.715 96.125 C 187.303 96.615,186.966 97.154,186.966 97.324 C 186.966 97.493,186.641 98.019,186.242 98.492 C 185.844 98.965,185.424 99.856,185.309 100.470 C 185.193 101.085,184.855 101.759,184.556 101.968 C 184.257 102.178,183.914 102.747,183.795 103.234 C 183.590 104.067,183.302 104.524,181.648 106.640 C 181.277 107.114,180.973 107.618,180.973 107.759 C 180.972 108.162,177.705 114.448,176.713 115.955 C 176.442 116.367,176.132 117.062,176.025 117.500 C 175.917 117.937,175.504 118.601,175.106 118.975 C 174.708 119.349,174.382 119.983,174.382 120.384 C 174.382 120.784,174.079 121.500,173.708 121.974 C 172.038 124.110,171.753 124.560,171.415 125.594 C 171.217 126.199,170.869 126.849,170.641 127.038 C 170.412 127.227,170.143 127.760,170.041 128.223 C 169.940 128.685,169.526 129.373,169.123 129.752 C 168.720 130.131,168.390 130.745,168.390 131.115 C 168.390 131.486,168.070 132.170,167.679 132.636 C 167.289 133.102,166.871 133.930,166.752 134.477 C 166.633 135.024,166.347 135.543,166.117 135.632 C 165.887 135.720,165.540 136.351,165.346 137.035 C 165.152 137.718,164.710 138.614,164.363 139.026 C 163.266 140.331,162.511 141.542,162.160 142.561 C 161.972 143.104,161.545 143.898,161.209 144.324 C 160.874 144.751,160.599 145.273,160.599 145.486 C 160.599 145.698,160.283 146.253,159.896 146.719 C 159.509 147.184,159.094 147.970,158.975 148.464 C 158.855 148.959,158.513 149.633,158.214 149.963 C 157.916 150.292,157.576 150.878,157.459 151.264 C 157.224 152.034,155.637 154.490,155.198 154.761 C 155.047 154.855,154.777 155.473,154.599 156.134 C 154.421 156.796,154.013 157.561,153.692 157.836 C 153.371 158.111,153.109 158.476,153.109 158.648 C 153.109 158.820,152.839 159.463,152.509 160.078 C 151.979 161.068,151.675 162.996,152.050 162.996 C 152.127 162.996,152.652 162.510,153.216 161.915 C 154.708 160.343,154.719 160.332,156.027 159.024 C 156.686 158.364,157.361 157.690,157.525 157.525 C 157.690 157.361,158.364 156.686,159.024 156.027 C 159.683 155.368,160.378 154.678,160.569 154.493 C 160.759 154.308,163.058 152.034,165.678 149.438 C 168.297 146.843,170.585 144.719,170.763 144.719 C 170.941 144.719,171.092 144.551,171.098 144.345 C 171.105 144.139,171.659 143.498,172.330 142.921 C 173.000 142.345,173.703 141.695,173.891 141.477 C 174.078 141.259,174.772 140.553,175.431 139.907 C 176.090 139.261,176.744 138.610,176.884 138.460 C 177.212 138.108,178.258 137.063,178.610 136.734 C 178.760 136.594,179.414 135.940,180.063 135.281 C 180.712 134.622,181.403 133.931,181.597 133.747 C 182.055 133.312,184.248 131.118,184.683 130.661 C 184.868 130.466,185.558 129.783,186.217 129.141 C 187.704 127.696,187.920 127.479,189.366 125.993 C 190.007 125.333,190.707 124.627,190.921 124.422 C 191.427 123.940,193.550 121.816,193.926 121.417 C 194.086 121.247,194.449 120.859,194.733 120.554 C 195.017 120.249,195.711 119.566,196.276 119.037 C 196.841 118.507,197.438 117.935,197.603 117.766 C 197.768 117.598,201.235 114.156,205.307 110.117 C 211.840 103.639,213.333 102.030,213.333 101.469 C 213.333 101.389,212.255 100.247,210.936 98.931 C 209.155 97.152,208.539 96.335,208.539 95.749 C 208.539 95.166,207.956 94.386,206.292 92.744 C 204.630 91.103,204.045 90.321,204.045 89.739 C 204.045 89.151,203.440 88.362,201.648 86.610 C 199.753 84.757,199.251 84.087,199.251 83.407 C 199.251 81.529,196.616 80.326,195.441 81.667 M214.984 82.392 C 214.763 82.750,215.044 83.296,215.448 83.296 C 215.813 83.296,215.815 82.485,215.451 82.260 C 215.298 82.165,215.088 82.225,214.984 82.392 M216.690 84.151 C 216.379 84.348,216.395 84.475,216.765 84.782 C 217.158 85.109,217.228 85.071,217.228 84.531 C 217.228 83.815,217.225 83.812,216.690 84.151 M217.828 85.806 C 217.828 85.868,218.030 86.087,218.277 86.292 C 218.645 86.598,218.727 86.577,218.727 86.179 C 218.727 85.912,218.524 85.693,218.277 85.693 C 218.030 85.693,217.828 85.744,217.828 85.806 " stroke="none" fill="#f88600" fill-rule="evenodd"></path><path id="path2" d="M168.764 45.318 C 168.600 45.524,168.397 46.906,168.312 48.390 C 168.228 49.873,167.879 52.232,167.537 53.633 C 167.194 55.034,166.776 57.596,166.608 59.326 C 166.439 61.056,166.115 63.079,165.888 63.820 C 165.661 64.562,165.381 66.449,165.267 68.015 C 165.153 69.581,164.805 71.805,164.495 72.959 C 164.184 74.112,163.784 76.575,163.604 78.430 C 163.425 80.286,163.144 82.158,162.980 82.591 C 162.815 83.023,162.478 85.146,162.230 87.307 C 161.983 89.468,161.579 91.942,161.332 92.805 C 161.086 93.668,160.750 95.825,160.587 97.599 C 160.423 99.373,160.221 101.010,160.139 101.237 C 159.782 102.221,159.132 106.108,158.955 108.315 C 158.849 109.633,158.508 111.723,158.197 112.959 C 157.887 114.195,157.483 116.590,157.300 118.282 C 157.118 119.974,156.784 122.068,156.558 122.935 C 156.332 123.803,156.050 125.722,155.931 127.200 C 155.812 128.678,155.460 130.764,155.148 131.835 C 154.835 132.906,154.462 135.271,154.318 137.090 C 154.175 138.909,153.847 141.206,153.591 142.194 C 153.335 143.182,152.981 145.334,152.805 146.977 C 152.629 148.619,152.235 150.974,151.930 152.210 C 151.625 153.446,151.283 155.799,151.171 157.440 C 151.058 159.080,150.775 160.968,150.540 161.634 C 149.926 163.383,149.620 166.147,150.071 165.868 C 151.299 165.109,151.910 162.777,151.910 158.852 C 151.910 155.298,151.964 154.918,152.584 154.131 C 153.178 153.376,153.280 152.807,153.439 149.371 C 153.587 146.177,153.737 145.247,154.268 144.249 C 154.835 143.181,154.917 142.539,154.927 139.084 C 154.937 135.349,154.977 135.094,155.668 134.272 C 156.335 133.479,156.415 133.057,156.591 129.398 C 156.728 126.549,156.910 125.248,157.220 124.891 C 157.721 124.314,158.178 121.214,158.192 118.294 C 158.200 116.765,158.362 116.018,158.876 115.148 C 159.477 114.133,159.562 113.526,159.652 109.616 C 159.743 105.729,159.815 105.209,160.281 105.087 C 160.965 104.908,161.191 103.500,161.195 99.391 C 161.198 96.869,161.292 96.125,161.627 95.997 C 162.381 95.707,162.697 94.082,162.697 90.483 C 162.697 87.341,162.765 86.886,163.343 86.151 C 163.904 85.437,164.013 84.805,164.174 81.340 C 164.321 78.189,164.467 77.231,164.869 76.787 C 165.388 76.214,166.242 68.061,165.850 67.427 C 165.756 67.276,165.967 66.884,166.318 66.557 C 167.037 65.887,167.455 63.254,167.477 59.251 C 167.485 57.974,167.612 56.929,167.761 56.929 C 168.340 56.929,168.730 54.802,168.902 50.706 C 169.102 45.929,169.284 45.683,171.144 47.675 C 171.588 48.150,172.094 48.539,172.268 48.539 C 172.442 48.539,172.584 48.950,172.584 49.453 C 172.584 50.042,172.850 50.612,173.333 51.060 C 173.745 51.442,174.082 51.856,174.082 51.980 C 174.082 52.314,176.361 54.532,176.705 54.532 C 176.867 54.532,177.081 55.029,177.179 55.636 C 177.278 56.243,177.629 57.018,177.959 57.358 C 179.532 58.981,180.375 59.967,180.375 60.187 C 180.375 60.320,180.712 60.582,181.124 60.769 C 181.614 60.993,181.873 61.354,181.873 61.817 C 181.873 62.528,183.820 65.318,184.317 65.318 C 184.464 65.318,184.708 65.644,184.859 66.042 C 185.010 66.440,185.412 66.853,185.751 66.961 C 186.149 67.087,186.367 67.413,186.367 67.880 C 186.367 68.555,186.687 69.008,188.839 71.388 C 189.292 71.889,189.663 72.417,189.663 72.561 C 189.663 72.706,190.000 72.952,190.412 73.109 C 190.919 73.301,191.161 73.622,191.161 74.101 C 191.161 74.847,193.002 77.440,193.729 77.720 C 193.965 77.810,194.157 78.131,194.157 78.434 C 194.157 79.126,195.957 80.899,196.659 80.899 C 197.632 80.899,199.251 82.466,199.251 83.407 C 199.251 84.087,199.753 84.757,201.648 86.610 C 203.440 88.362,204.045 89.151,204.045 89.739 C 204.045 90.321,204.630 91.103,206.292 92.744 C 207.956 94.386,208.539 95.166,208.539 95.749 C 208.539 96.334,209.151 97.148,210.912 98.906 C 212.217 100.209,213.331 101.418,213.389 101.591 C 213.510 101.952,214.532 101.644,214.532 101.247 C 214.532 101.103,216.275 99.257,218.406 97.144 C 220.661 94.909,222.364 92.971,222.480 92.508 C 222.651 91.826,222.799 91.736,223.513 91.879 C 224.391 92.054,225.191 91.393,224.415 91.134 C 223.686 90.892,220.305 86.804,217.079 82.267 C 216.749 81.803,215.401 80.090,214.082 78.460 C 212.764 76.830,211.011 74.613,210.187 73.534 C 208.224 70.962,205.330 67.505,204.938 67.262 C 204.345 66.896,202.783 68.142,202.305 69.363 C 202.047 70.022,201.731 70.605,201.602 70.659 C 201.473 70.712,200.805 71.925,200.118 73.355 C 199.431 74.785,198.635 76.225,198.349 76.554 C 198.063 76.884,197.696 77.558,197.534 78.052 C 197.287 78.802,197.094 78.941,196.372 78.887 C 195.447 78.818,195.402 78.770,193.109 75.480 C 192.285 74.298,191.315 72.977,190.955 72.546 C 190.594 72.114,189.886 71.271,189.382 70.672 C 188.877 70.074,188.464 69.486,188.464 69.367 C 188.464 69.168,187.988 68.512,186.392 66.517 C 186.063 66.105,185.471 65.363,185.077 64.869 C 184.683 64.375,183.796 63.161,183.107 62.172 C 182.417 61.184,181.177 59.498,180.350 58.427 C 179.524 57.356,178.648 56.210,178.404 55.880 C 178.159 55.551,177.226 54.337,176.330 53.184 C 173.906 50.063,173.611 49.657,173.182 48.845 C 172.966 48.436,172.481 47.859,172.105 47.563 C 171.729 47.268,171.346 46.789,171.254 46.499 C 170.948 45.535,169.237 44.724,168.764 45.318 M203.745 70.362 C 203.745 70.752,203.389 71.012,203.099 70.833 C 202.790 70.641,203.057 70.112,203.463 70.112 C 203.618 70.112,203.745 70.225,203.745 70.362 M207.940 72.060 C 207.940 72.307,207.813 72.509,207.658 72.509 C 207.280 72.509,207.010 72.041,207.249 71.802 C 207.587 71.465,207.940 71.597,207.940 72.060 M202.247 73.358 C 202.247 73.748,201.891 74.008,201.601 73.829 C 201.291 73.637,201.559 73.109,201.965 73.109 C 202.120 73.109,202.247 73.221,202.247 73.358 M238.198 78.127 L 234.457 81.948 238.342 78.202 C 240.479 76.142,242.288 74.423,242.362 74.382 C 242.436 74.341,242.371 74.307,242.218 74.307 C 242.064 74.307,240.255 76.026,238.198 78.127 M243.977 76.105 C 243.977 76.846,244.035 77.150,244.107 76.779 C 244.178 76.408,244.178 75.801,244.107 75.431 C 244.035 75.060,243.977 75.363,243.977 76.105 M200.617 76.134 C 200.729 76.314,200.602 76.680,200.335 76.947 C 199.888 77.394,199.850 77.368,199.850 76.619 C 199.850 75.791,200.249 75.539,200.617 76.134 M210.936 76.891 C 210.936 77.289,210.855 77.309,210.487 77.004 C 210.240 76.799,210.037 76.580,210.037 76.518 C 210.037 76.455,210.240 76.404,210.487 76.404 C 210.734 76.404,210.936 76.623,210.936 76.891 M199.182 78.258 C 198.997 78.814,198.352 78.906,198.352 78.377 C 198.352 78.116,198.566 77.903,198.826 77.903 C 199.087 77.903,199.248 78.063,199.182 78.258 M212.434 78.389 C 212.434 78.787,212.353 78.807,211.985 78.502 C 211.738 78.297,211.536 78.078,211.536 78.016 C 211.536 77.954,211.738 77.903,211.985 77.903 C 212.232 77.903,212.434 78.121,212.434 78.389 M214.042 79.848 C 213.947 80.095,213.749 80.222,213.602 80.130 C 213.179 79.869,213.289 79.401,213.773 79.401 C 214.041 79.401,214.146 79.577,214.042 79.848 M215.730 82.864 C 215.730 83.359,215.257 83.442,214.981 82.996 C 214.737 82.601,215.095 82.040,215.451 82.260 C 215.605 82.355,215.730 82.627,215.730 82.864 M233.240 83.071 L 232.360 84.045 233.333 83.165 C 233.869 82.681,234.307 82.243,234.307 82.191 C 234.307 81.960,234.060 82.163,233.240 83.071 M217.228 84.531 C 217.228 85.071,217.158 85.109,216.765 84.782 C 216.395 84.475,216.379 84.348,216.690 84.151 C 217.225 83.812,217.228 83.815,217.228 84.531 M218.727 86.179 C 218.727 86.577,218.645 86.598,218.277 86.292 C 218.030 86.087,217.828 85.868,217.828 85.806 C 217.828 85.744,218.030 85.693,218.277 85.693 C 218.524 85.693,218.727 85.912,218.727 86.179 M247.527 98.577 C 247.522 98.824,247.703 99.431,247.929 99.925 C 248.459 101.082,248.467 100.544,247.940 99.176 C 247.718 98.599,247.532 98.330,247.527 98.577 M250.528 115.955 C 250.517 116.367,250.715 117.041,250.968 117.453 C 251.273 117.950,251.357 118.001,251.220 117.603 C 251.105 117.273,250.908 116.599,250.780 116.105 C 250.568 115.283,250.547 115.270,250.528 115.955 M252.031 124.944 C 252.031 125.191,252.212 125.865,252.434 126.442 C 252.657 127.019,252.838 127.288,252.838 127.041 C 252.838 126.794,252.657 126.120,252.434 125.543 C 252.212 124.966,252.031 124.697,252.031 124.944 M253.501 133.137 C 253.480 133.776,254.386 137.025,254.541 136.869 C 254.599 136.812,254.392 135.825,254.082 134.675 C 253.773 133.525,253.511 132.833,253.501 133.137 M255.324 143.670 C 255.327 144.295,256.120 146.592,256.152 146.067 C 256.162 145.903,255.979 145.161,255.746 144.419 C 255.512 143.678,255.322 143.341,255.324 143.670 M256.822 152.060 C 256.825 152.685,257.619 154.981,257.651 154.457 C 257.661 154.292,257.478 153.551,257.244 152.809 C 257.010 152.067,256.820 151.730,256.822 152.060 M258.319 161.049 C 258.319 161.378,258.435 161.918,258.577 162.247 L 258.834 162.846 258.834 162.247 C 258.834 161.918,258.718 161.378,258.577 161.049 L 258.319 160.449 258.319 161.049 M204.195 196.854 L 203.296 197.083 204.102 197.118 C 204.546 197.138,204.992 197.019,205.094 196.854 C 205.195 196.689,205.237 196.570,205.186 196.590 C 205.135 196.609,204.689 196.728,204.195 196.854 " stroke="none" fill="#f89221" fill-rule="evenodd"></path><path id="path3" d="M168.902 50.706 C 168.730 54.802,168.340 56.929,167.761 56.929 C 167.612 56.929,167.485 57.974,167.477 59.251 C 167.455 63.254,167.037 65.887,166.318 66.557 C 165.967 66.884,165.756 67.276,165.850 67.427 C 166.242 68.061,165.388 76.214,164.869 76.787 C 164.467 77.231,164.321 78.189,164.174 81.340 C 164.013 84.805,163.904 85.437,163.343 86.151 C 162.765 86.886,162.697 87.341,162.697 90.483 C 162.697 94.082,162.381 95.707,161.627 95.997 C 161.292 96.125,161.198 96.869,161.195 99.391 C 161.191 103.500,160.965 104.908,160.281 105.087 C 159.815 105.209,159.743 105.729,159.652 109.616 C 159.562 113.526,159.477 114.133,158.876 115.148 C 158.362 116.018,158.200 116.765,158.192 118.294 C 158.178 121.214,157.721 124.314,157.220 124.891 C 156.910 125.248,156.728 126.549,156.591 129.398 C 156.415 133.057,156.335 133.479,155.668 134.272 C 154.977 135.094,154.937 135.349,154.927 139.084 C 154.917 142.539,154.835 143.181,154.268 144.249 C 153.737 145.247,153.587 146.177,153.439 149.371 C 153.280 152.807,153.178 153.376,152.584 154.131 C 151.986 154.890,151.910 155.329,151.910 158.010 C 151.910 161.089,152.246 161.439,152.956 159.101 C 153.081 158.689,153.431 158.116,153.734 157.826 C 154.037 157.537,154.428 156.768,154.604 156.116 C 154.779 155.465,155.047 154.855,155.198 154.761 C 155.637 154.490,157.224 152.034,157.459 151.264 C 157.576 150.878,157.916 150.292,158.214 149.963 C 158.513 149.633,158.855 148.959,158.975 148.464 C 159.094 147.970,159.509 147.184,159.896 146.719 C 160.283 146.253,160.599 145.698,160.599 145.486 C 160.599 145.273,160.874 144.751,161.209 144.324 C 161.545 143.898,161.972 143.104,162.160 142.561 C 162.511 141.542,163.266 140.331,164.363 139.026 C 164.710 138.614,165.152 137.718,165.346 137.035 C 165.540 136.351,165.887 135.720,166.117 135.632 C 166.347 135.543,166.633 135.024,166.752 134.477 C 166.871 133.930,167.289 133.102,167.679 132.636 C 168.070 132.170,168.390 131.486,168.390 131.115 C 168.390 130.745,168.720 130.131,169.123 129.752 C 169.526 129.373,169.940 128.685,170.041 128.223 C 170.143 127.760,170.412 127.227,170.641 127.038 C 170.869 126.849,171.217 126.199,171.414 125.594 C 171.611 124.989,172.056 124.126,172.403 123.675 C 172.750 123.225,173.337 122.462,173.708 121.980 C 174.079 121.498,174.382 120.778,174.382 120.379 C 174.382 119.981,174.708 119.349,175.106 118.975 C 175.504 118.601,175.917 117.937,176.025 117.500 C 176.132 117.062,176.442 116.367,176.713 115.955 C 177.705 114.448,180.972 108.162,180.973 107.759 C 180.973 107.618,181.277 107.114,181.648 106.640 C 183.302 104.524,183.590 104.067,183.795 103.234 C 183.914 102.747,184.257 102.178,184.556 101.968 C 184.855 101.759,185.193 101.085,185.309 100.470 C 185.424 99.856,185.844 98.965,186.242 98.492 C 186.641 98.019,186.966 97.493,186.966 97.324 C 186.966 97.154,187.303 96.615,187.715 96.125 C 188.127 95.636,188.464 94.967,188.464 94.639 C 188.464 94.311,188.801 93.600,189.213 93.060 C 189.625 92.520,189.965 91.889,189.968 91.657 C 189.975 91.150,191.466 88.788,192.335 87.909 C 192.678 87.562,192.959 87.015,192.959 86.693 C 192.959 86.372,193.282 85.670,193.678 85.134 C 194.073 84.598,194.484 83.696,194.590 83.129 C 194.697 82.561,194.908 82.097,195.059 82.097 C 195.973 82.097,195.987 80.810,195.084 79.879 C 194.574 79.353,194.157 78.689,194.157 78.403 C 194.157 78.118,193.965 77.810,193.729 77.720 C 193.002 77.440,191.161 74.847,191.161 74.101 C 191.161 73.622,190.919 73.301,190.412 73.109 C 190.000 72.952,189.663 72.706,189.663 72.561 C 189.663 72.417,189.292 71.889,188.839 71.388 C 186.687 69.008,186.367 68.555,186.367 67.880 C 186.367 67.413,186.149 67.087,185.751 66.961 C 185.412 66.853,185.010 66.440,184.859 66.042 C 184.708 65.644,184.464 65.318,184.317 65.318 C 183.820 65.318,181.873 62.528,181.873 61.817 C 181.873 61.354,181.614 60.993,181.124 60.769 C 180.712 60.582,180.375 60.320,180.375 60.187 C 180.375 59.967,179.532 58.981,177.959 57.358 C 177.629 57.018,177.278 56.243,177.179 55.636 C 177.081 55.029,176.867 54.532,176.705 54.532 C 176.361 54.532,174.082 52.314,174.082 51.980 C 174.082 51.856,173.745 51.442,173.333 51.060 C 172.850 50.612,172.584 50.042,172.584 49.453 C 172.584 48.950,172.442 48.539,172.268 48.539 C 172.094 48.539,171.588 48.150,171.144 47.675 C 169.284 45.683,169.102 45.929,168.902 50.706 M222.846 92.309 C 222.558 92.477,222.322 92.760,222.322 92.938 C 222.322 93.117,220.569 95.000,218.427 97.124 C 216.285 99.247,214.532 101.115,214.532 101.273 C 214.532 101.432,214.195 101.646,213.783 101.750 C 213.371 101.853,213.034 102.051,213.034 102.190 C 213.034 102.329,209.629 105.822,205.468 109.952 C 201.307 114.083,197.768 117.600,197.603 117.768 C 197.438 117.936,196.841 118.507,196.276 119.037 C 195.711 119.566,194.997 120.270,194.688 120.599 C 194.380 120.929,194.017 121.317,193.881 121.462 C 193.563 121.803,191.344 124.022,190.885 124.458 C 190.691 124.643,190.007 125.333,189.366 125.993 C 187.920 127.479,187.704 127.696,186.217 129.141 C 185.558 129.783,184.868 130.466,184.683 130.661 C 184.248 131.118,182.055 133.312,181.597 133.747 C 181.403 133.931,180.712 134.622,180.063 135.281 C 179.414 135.940,178.740 136.614,178.565 136.779 C 178.155 137.165,177.109 138.211,176.839 138.505 C 176.724 138.630,176.090 139.261,175.431 139.907 C 174.772 140.553,174.078 141.259,173.891 141.477 C 173.703 141.695,173.000 142.345,172.330 142.921 C 171.659 143.498,171.105 144.139,171.098 144.345 C 171.092 144.551,170.941 144.719,170.763 144.719 C 170.585 144.719,168.297 146.843,165.678 149.438 C 163.058 152.034,160.743 154.325,160.533 154.529 C 160.322 154.734,159.610 155.440,158.951 156.100 C 158.292 156.759,157.618 157.433,157.453 157.598 C 157.288 157.763,156.614 158.437,155.955 159.096 C 154.634 160.417,154.584 160.469,153.174 161.958 C 152.632 162.529,152.080 162.996,151.946 162.996 C 151.647 162.996,150.560 165.341,150.764 165.546 C 150.845 165.626,151.091 165.355,151.311 164.943 C 151.531 164.532,151.817 164.195,151.945 164.195 C 152.074 164.195,162.062 154.356,174.142 142.330 C 186.222 130.304,200.049 116.552,204.869 111.769 C 209.689 106.986,213.633 103.019,213.633 102.954 C 213.633 102.888,215.990 100.494,218.871 97.634 C 221.752 94.774,224.111 92.333,224.114 92.210 C 224.122 91.895,223.469 91.946,222.846 92.309 " stroke="none" fill="#ffa701" fill-rule="evenodd"></path><path id="path4" d="M197.611 222.307 C 196.816 223.843,196.932 259.037,197.733 259.465 C 199.437 260.377,202.846 259.594,202.846 258.291 C 202.846 257.730,204.606 258.136,205.398 258.881 C 207.319 260.686,213.342 260.384,216.079 258.346 C 221.121 254.589,222.591 241.758,218.536 236.906 C 218.146 236.440,217.828 235.958,217.828 235.835 C 217.828 235.045,214.718 233.171,212.563 232.664 C 209.939 232.046,206.385 232.567,205.210 233.741 C 204.899 234.052,204.307 234.307,203.895 234.307 L 203.146 234.307 203.146 228.744 C 203.146 221.614,203.068 221.436,199.933 221.428 C 198.169 221.423,198.043 221.471,197.611 222.307 M139.474 223.345 C 138.587 224.233,138.298 225.287,138.561 226.685 C 139.247 230.344,145.014 229.397,145.021 225.625 C 145.025 223.189,141.201 221.618,139.474 223.345 M111.386 223.844 C 110.718 224.233,110.558 258.753,111.221 259.416 C 111.656 259.851,115.293 259.898,116.385 259.483 L 117.154 259.191 117.154 252.164 C 117.154 243.254,116.325 244.142,124.565 244.219 C 131.867 244.287,131.526 244.406,131.526 241.798 C 131.526 239.213,131.856 239.329,124.688 239.382 C 116.458 239.444,117.154 239.940,117.154 234.007 C 117.154 228.082,116.325 228.614,125.543 228.614 C 134.084 228.614,133.933 228.658,133.933 226.214 C 133.933 223.459,134.197 223.519,122.037 223.530 C 115.718 223.535,111.713 223.654,111.386 223.844 M161.275 232.805 C 160.411 233.116,159.379 233.749,158.981 234.211 L 158.258 235.052 157.706 234.072 C 157.053 232.913,156.387 232.695,154.022 232.866 C 151.102 233.077,151.311 232.041,151.311 246.292 C 151.311 260.770,151.020 259.576,154.578 259.712 C 157.917 259.840,157.674 260.576,157.638 250.449 C 157.604 240.554,157.540 240.878,159.844 239.240 C 161.075 238.365,161.557 238.202,162.919 238.202 C 165.390 238.202,165.694 237.930,165.688 235.720 C 165.680 232.320,164.602 231.607,161.275 232.805 M177.396 232.855 C 176.151 233.184,174.870 233.735,174.497 234.101 C 174.130 234.461,173.420 235.065,172.920 235.443 C 167.623 239.442,167.021 250.679,171.815 256.046 C 176.330 261.100,185.588 261.505,190.487 256.862 C 192.803 254.667,189.779 251.642,187.041 253.415 C 186.670 253.655,186.367 253.961,186.367 254.094 C 186.367 254.850,180.536 255.394,179.000 254.781 C 177.070 254.012,174.385 250.104,174.998 248.958 C 175.285 248.422,175.752 248.390,183.210 248.390 C 191.733 248.390,191.827 248.373,192.227 246.778 C 192.515 245.633,191.532 239.182,190.932 238.276 C 190.633 237.823,190.247 237.189,190.076 236.867 C 188.190 233.325,182.463 231.513,177.396 232.855 M233.705 232.790 C 229.384 233.702,226.217 236.555,226.217 239.536 C 226.217 240.429,226.325 240.605,226.891 240.632 C 230.005 240.785,231.126 240.744,231.346 240.469 C 231.486 240.294,231.958 239.706,232.393 239.163 C 234.059 237.085,236.734 236.462,238.956 237.634 C 240.568 238.484,240.550 238.460,240.887 240.237 C 241.404 242.964,241.159 243.173,237.174 243.400 C 232.482 243.668,231.096 243.989,229.135 245.262 C 222.345 249.669,224.926 259.312,233.074 259.979 C 235.492 260.177,238.370 259.680,239.464 258.875 C 240.561 258.067,241.437 258.123,242.302 259.057 C 243.924 260.807,249.253 259.714,248.116 257.865 C 247.587 257.006,247.532 256.176,247.441 247.740 C 247.345 238.944,247.314 238.515,246.709 237.697 C 246.361 237.227,245.980 236.538,245.862 236.166 C 245.744 235.794,245.287 235.266,244.846 234.993 C 244.406 234.720,243.748 234.233,243.384 233.912 C 241.848 232.556,237.309 232.029,233.705 232.790 M260.911 232.767 C 258.675 233.243,258.202 233.501,255.891 235.506 C 254.440 236.765,253.131 241.359,254.059 241.933 C 254.211 242.027,254.421 242.491,254.525 242.963 C 254.861 244.494,257.662 246.887,259.625 247.320 C 260.120 247.429,261.199 247.778,262.022 248.096 C 262.846 248.413,264.262 248.817,265.169 248.992 C 269.436 249.820,270.472 253.839,266.745 255.109 C 263.781 256.119,260.682 255.269,259.609 253.151 C 258.816 251.587,258.394 251.396,255.715 251.390 C 253.052 251.384,252.265 252.945,253.933 254.927 C 254.345 255.416,254.682 255.925,254.682 256.057 C 254.682 256.428,256.251 257.978,256.627 257.978 C 256.811 257.978,257.400 258.301,257.936 258.696 C 259.328 259.723,262.252 260.197,265.842 259.978 C 268.790 259.799,269.029 259.726,271.910 258.123 C 274.303 256.792,275.561 253.420,274.926 250.035 C 274.725 248.966,271.812 245.696,271.053 245.690 C 270.865 245.688,269.992 245.352,269.112 244.942 C 268.232 244.533,266.645 244.059,265.584 243.890 C 259.523 242.921,257.836 239.450,262.381 237.299 C 264.551 236.272,267.444 237.327,268.606 239.570 L 269.217 240.749 271.716 240.837 C 274.650 240.939,275.015 240.742,274.774 239.184 C 274.008 234.231,267.715 231.318,260.911 232.767 M288.578 232.824 C 287.364 233.125,286.083 233.631,285.732 233.948 C 285.381 234.265,284.876 234.644,284.611 234.791 C 284.020 235.116,281.049 238.668,281.049 239.050 C 281.049 239.201,280.712 240.357,280.300 241.619 C 278.964 245.711,279.721 252.722,281.736 254.915 C 284.378 257.792,284.784 258.116,287.249 259.307 C 289.696 260.489,296.522 260.140,298.607 258.726 C 299.213 258.314,299.841 257.978,300.002 257.978 C 300.163 257.978,300.840 257.433,301.506 256.766 L 302.717 255.555 301.834 254.294 C 300.697 252.672,299.123 252.394,297.865 253.594 C 295.768 255.594,290.380 255.670,288.436 253.726 C 286.525 251.815,285.635 249.937,286.168 248.940 C 286.443 248.427,287.002 248.390,294.386 248.390 L 302.308 248.390 302.809 247.625 C 303.233 246.978,303.280 246.366,303.118 243.655 C 302.850 239.201,301.724 237.015,298.086 233.887 C 296.496 232.519,291.884 232.003,288.578 232.824 M139.197 233.280 C 138.580 233.897,138.474 258.804,139.086 259.416 C 139.626 259.955,143.242 259.877,144.053 259.309 L 144.719 258.842 144.719 246.283 L 144.719 233.723 143.835 233.266 C 142.650 232.653,139.816 232.662,139.197 233.280 M183.680 238.057 C 184.694 238.582,186.067 241.173,186.067 242.563 C 186.067 243.649,185.103 243.896,180.879 243.892 C 174.465 243.886,174.262 243.755,175.907 240.681 C 177.659 237.406,180.541 236.434,183.680 238.057 M211.887 238.233 C 212.163 238.379,212.871 239.292,213.460 240.262 L 214.532 242.026 214.532 246.348 C 214.532 251.154,214.166 252.225,211.863 254.163 C 209.651 256.024,205.340 255.091,203.830 252.426 C 202.758 250.534,202.805 242.301,203.899 240.105 C 205.149 237.596,208.986 236.697,211.887 238.233 M293.471 237.631 C 295.282 238.087,296.213 239.172,296.743 241.442 L 297.183 243.328 296.437 243.612 C 295.606 243.928,288.541 244.000,287.079 243.708 C 285.811 243.454,285.819 242.282,287.105 240.132 C 288.544 237.726,290.615 236.912,293.471 237.631 M240.734 247.593 C 241.595 248.222,241.268 252.297,240.269 253.380 C 238.229 255.593,233.175 255.639,232.046 253.456 C 230.844 251.133,232.417 247.785,234.891 247.400 C 236.825 247.099,240.212 247.210,240.734 247.593 " stroke="none" fill="#4d4d4d" fill-rule="evenodd"></path><path id="path5" d="M0.000 149.813 L 0.000 299.625 200.000 299.625 L 400.000 299.625 400.000 149.813 L 400.000 0.000 200.000 0.000 L 0.000 0.000 0.000 149.813 M170.216 45.458 C 170.695 45.741,171.162 46.209,171.254 46.499 C 171.346 46.789,171.729 47.268,172.105 47.563 C 172.481 47.859,172.966 48.436,173.182 48.845 C 173.611 49.657,173.906 50.063,176.330 53.184 C 177.226 54.337,178.159 55.551,178.404 55.880 C 178.648 56.210,179.524 57.356,180.350 58.427 C 181.177 59.498,182.417 61.184,183.107 62.172 C 183.796 63.161,184.683 64.375,185.077 64.869 C 185.471 65.363,186.063 66.105,186.392 66.517 C 187.988 68.512,188.464 69.168,188.464 69.367 C 188.464 69.486,188.877 70.074,189.382 70.672 C 189.886 71.271,190.594 72.114,190.955 72.546 C 191.315 72.977,192.285 74.298,193.109 75.480 C 195.402 78.770,195.447 78.818,196.372 78.887 C 197.094 78.941,197.287 78.802,197.534 78.052 C 197.696 77.558,198.063 76.884,198.349 76.554 C 198.635 76.225,199.431 74.785,200.118 73.355 C 200.805 71.925,201.473 70.712,201.602 70.659 C 201.731 70.605,202.047 70.022,202.305 69.363 C 202.783 68.142,204.345 66.896,204.938 67.262 C 205.330 67.505,208.224 70.962,210.187 73.534 C 211.011 74.613,212.799 76.880,214.161 78.572 C 217.096 82.219,216.910 81.979,217.816 83.296 C 218.213 83.873,219.365 85.356,220.375 86.592 C 221.386 87.828,222.459 89.217,222.761 89.678 C 224.180 91.848,224.484 91.738,228.683 87.540 C 244.684 71.541,243.922 72.027,244.279 77.603 C 244.369 79.004,244.667 80.757,244.943 81.498 C 245.219 82.240,245.565 84.286,245.712 86.045 C 245.860 87.805,246.186 89.827,246.437 90.540 C 246.688 91.252,247.033 93.184,247.202 94.831 C 247.372 96.479,247.766 98.637,248.078 99.625 C 248.390 100.614,248.727 102.637,248.828 104.120 C 248.928 105.603,249.262 107.693,249.569 108.764 C 249.876 109.835,250.275 111.993,250.456 113.558 C 250.637 115.124,250.970 116.944,251.196 117.603 C 251.423 118.262,251.698 120.045,251.807 121.564 C 251.916 123.083,252.203 124.888,252.446 125.575 C 252.688 126.261,253.089 128.373,253.338 130.268 C 253.586 132.162,253.990 134.404,254.236 135.248 C 254.481 136.093,254.812 138.131,254.970 139.778 C 255.129 141.424,255.465 143.446,255.719 144.270 C 255.972 145.094,256.317 146.981,256.485 148.464 C 256.654 149.948,256.984 151.835,257.219 152.659 C 257.454 153.483,257.778 155.438,257.940 157.004 C 258.102 158.569,258.466 160.659,258.749 161.648 C 259.956 165.860,259.565 167.256,256.779 168.676 C 256.202 168.970,255.258 169.452,254.682 169.748 C 254.105 170.044,253.311 170.534,252.918 170.836 C 252.525 171.138,251.963 171.386,251.668 171.386 C 251.373 171.386,250.751 171.704,250.285 172.094 C 249.819 172.483,249.101 172.903,248.689 173.027 C 248.277 173.151,247.670 173.491,247.341 173.783 C 247.011 174.074,246.404 174.412,245.993 174.532 C 245.581 174.652,244.974 174.983,244.644 175.268 C 244.315 175.552,242.916 176.343,241.536 177.025 C 240.156 177.708,238.875 178.387,238.689 178.534 C 238.504 178.682,237.273 179.370,235.955 180.062 C 234.637 180.755,233.356 181.497,233.109 181.712 C 232.861 181.926,232.322 182.203,231.910 182.328 C 231.498 182.452,230.780 182.873,230.314 183.262 C 229.848 183.651,229.226 183.970,228.931 183.970 C 228.637 183.970,228.072 184.225,227.676 184.536 C 227.280 184.847,226.487 185.317,225.913 185.579 C 225.339 185.842,224.195 186.460,223.371 186.953 C 222.547 187.446,221.401 188.058,220.824 188.314 C 220.247 188.569,219.573 188.909,219.326 189.068 C 219.079 189.228,218.245 189.694,217.474 190.104 C 216.703 190.514,215.987 190.987,215.884 191.155 C 215.780 191.323,215.452 191.461,215.155 191.461 C 214.857 191.461,214.105 191.865,213.483 192.360 C 212.861 192.854,212.111 193.258,211.815 193.258 C 211.520 193.258,211.075 193.462,210.827 193.710 C 210.578 193.959,209.793 194.437,209.082 194.773 C 208.372 195.108,207.055 195.781,206.155 196.268 C 203.923 197.477,200.989 197.097,199.101 195.354 C 198.772 195.050,198.141 194.711,197.700 194.602 C 197.259 194.493,196.665 194.145,196.380 193.831 C 196.095 193.516,195.700 193.258,195.501 193.258 C 195.302 193.258,194.646 192.923,194.042 192.513 C 193.437 192.103,192.599 191.681,192.178 191.576 C 191.757 191.470,191.344 191.205,191.260 190.987 C 191.177 190.769,190.614 190.430,190.011 190.233 C 189.408 190.037,188.533 189.558,188.067 189.170 C 187.601 188.782,187.038 188.464,186.816 188.464 C 186.595 188.464,186.032 188.146,185.566 187.756 C 185.100 187.367,184.382 186.946,183.970 186.821 C 183.558 186.696,183.034 186.441,182.806 186.255 C 182.373 185.902,180.660 184.965,178.881 184.107 C 178.307 183.830,177.514 183.349,177.118 183.038 C 176.722 182.727,176.141 182.472,175.826 182.472 C 175.511 182.472,174.950 182.169,174.578 181.798 C 174.206 181.427,172.898 180.600,171.670 179.959 C 170.443 179.319,169.117 178.544,168.724 178.236 C 168.331 177.929,167.856 177.678,167.670 177.678 C 167.483 177.678,166.834 177.341,166.228 176.929 C 165.621 176.517,164.937 176.180,164.707 176.180 C 164.476 176.180,164.055 175.922,163.770 175.608 C 163.485 175.293,162.824 174.859,162.300 174.643 C 161.777 174.427,160.539 173.741,159.551 173.117 C 158.562 172.494,157.416 171.849,157.004 171.685 C 156.592 171.521,156.052 171.248,155.805 171.079 C 155.558 170.910,154.801 170.507,154.122 170.183 C 153.443 169.860,152.719 169.391,152.512 169.142 C 152.306 168.893,151.913 168.689,151.640 168.689 C 149.767 168.689,149.217 165.215,150.524 161.634 C 150.767 160.968,151.058 159.080,151.171 157.440 C 151.283 155.799,151.625 153.446,151.930 152.210 C 152.235 150.974,152.629 148.619,152.805 146.977 C 152.981 145.334,153.335 143.182,153.591 142.194 C 153.847 141.206,154.175 138.909,154.318 137.090 C 154.462 135.271,154.835 132.906,155.148 131.835 C 155.460 130.764,155.812 128.678,155.931 127.200 C 156.050 125.722,156.332 123.803,156.558 122.935 C 156.784 122.068,157.118 119.974,157.300 118.282 C 157.483 116.590,157.887 114.195,158.197 112.959 C 158.508 111.723,158.849 109.633,158.955 108.315 C 159.132 106.108,159.782 102.221,160.139 101.237 C 160.221 101.010,160.423 99.373,160.587 97.599 C 160.750 95.825,161.086 93.668,161.332 92.805 C 161.579 91.942,161.983 89.468,162.230 87.307 C 162.478 85.146,162.815 83.023,162.980 82.591 C 163.144 82.158,163.425 80.286,163.604 78.430 C 163.784 76.575,164.184 74.112,164.495 72.959 C 164.805 71.805,165.153 69.581,165.267 68.015 C 165.381 66.449,165.661 64.562,165.888 63.820 C 166.115 63.079,166.439 61.056,166.608 59.326 C 166.776 57.596,167.194 55.034,167.537 53.633 C 167.879 52.232,168.228 49.873,168.312 48.390 C 168.510 44.927,168.734 44.582,170.216 45.458 M202.127 221.653 C 202.987 222.227,203.146 223.331,203.146 228.744 L 203.146 234.307 203.895 234.307 C 204.307 234.307,204.899 234.052,205.210 233.741 C 206.385 232.567,209.939 232.046,212.563 232.664 C 214.718 233.171,217.828 235.045,217.828 235.835 C 217.828 235.958,218.146 236.440,218.536 236.906 C 222.591 241.758,221.121 254.589,216.079 258.346 C 213.342 260.384,207.319 260.686,205.398 258.881 C 204.606 258.136,202.846 257.730,202.846 258.291 C 202.846 259.594,199.437 260.377,197.733 259.465 C 196.932 259.037,196.816 223.843,197.611 222.307 C 198.073 221.413,201.110 220.973,202.127 221.653 M143.900 223.596 C 144.802 224.377,145.022 224.777,145.021 225.625 C 145.014 229.397,139.247 230.344,138.561 226.685 C 137.904 223.185,141.218 221.268,143.900 223.596 M133.049 223.978 C 133.877 224.406,133.933 224.547,133.933 226.214 C 133.933 228.658,134.084 228.614,125.543 228.614 C 116.325 228.614,117.154 228.082,117.154 234.007 C 117.154 239.940,116.458 239.444,124.688 239.382 C 131.856 239.329,131.526 239.213,131.526 241.798 C 131.526 244.406,131.867 244.287,124.565 244.219 C 116.325 244.142,117.154 243.254,117.154 252.164 L 117.154 259.191 116.385 259.483 C 115.293 259.898,111.656 259.851,111.221 259.416 C 110.558 258.753,110.718 224.233,111.386 223.844 C 112.314 223.303,131.979 223.425,133.049 223.978 M165.307 233.109 C 165.514 233.521,165.686 234.696,165.688 235.720 C 165.694 237.930,165.390 238.202,162.919 238.202 C 161.557 238.202,161.075 238.365,159.844 239.240 C 157.540 240.878,157.604 240.554,157.638 250.449 C 157.674 260.576,157.917 259.840,154.578 259.712 C 151.020 259.576,151.311 260.770,151.311 246.292 C 151.311 232.041,151.102 233.077,154.022 232.866 C 156.387 232.695,157.053 232.913,157.706 234.072 L 158.258 235.052 158.981 234.211 C 160.542 232.396,164.593 231.690,165.307 233.109 M184.058 232.784 C 186.431 233.346,189.203 235.227,190.076 236.867 C 190.247 237.189,190.633 237.823,190.932 238.276 C 191.532 239.182,192.515 245.633,192.227 246.778 C 191.827 248.373,191.733 248.390,183.210 248.390 C 175.752 248.390,175.285 248.422,174.998 248.958 C 174.385 250.104,177.070 254.012,179.000 254.781 C 180.536 255.394,186.367 254.850,186.367 254.094 C 186.367 253.749,187.573 253.014,188.523 252.780 C 189.193 252.615,189.513 252.768,190.396 253.677 C 194.519 257.923,181.997 262.172,175.317 258.794 C 167.478 254.829,166.022 240.650,172.920 235.443 C 173.420 235.065,174.130 234.461,174.497 234.101 C 176.074 232.554,180.511 231.943,184.058 232.784 M240.088 232.774 C 241.610 233.094,243.002 233.575,243.384 233.912 C 243.748 234.233,244.406 234.720,244.846 234.993 C 245.287 235.266,245.744 235.794,245.862 236.166 C 245.980 236.538,246.361 237.227,246.709 237.697 C 247.314 238.515,247.345 238.944,247.441 247.740 C 247.532 256.176,247.587 257.006,248.116 257.865 C 249.253 259.714,243.924 260.807,242.302 259.057 C 241.437 258.123,240.561 258.067,239.464 258.875 C 238.370 259.680,235.492 260.177,233.074 259.979 C 224.926 259.312,222.345 249.669,229.135 245.262 C 231.096 243.989,232.482 243.668,237.174 243.400 C 241.159 243.173,241.404 242.964,240.887 240.237 C 240.550 238.460,240.568 238.484,238.956 237.634 C 236.734 236.462,234.059 237.085,232.393 239.163 C 231.958 239.706,231.486 240.294,231.346 240.469 C 231.126 240.744,230.005 240.785,226.891 240.632 C 226.325 240.605,226.217 240.429,226.217 239.536 C 226.217 236.555,229.384 233.702,233.705 232.790 C 236.926 232.110,236.931 232.110,240.088 232.774 M267.566 232.767 C 271.448 233.580,274.300 236.119,274.774 239.184 C 275.015 240.742,274.650 240.939,271.716 240.837 L 269.217 240.749 268.606 239.570 C 267.444 237.327,264.551 236.272,262.381 237.299 C 257.836 239.450,259.523 242.921,265.584 243.890 C 266.645 244.059,268.232 244.533,269.112 244.942 C 269.992 245.352,270.865 245.688,271.053 245.690 C 271.812 245.696,274.725 248.966,274.926 250.035 C 275.561 253.420,274.303 256.792,271.910 258.123 C 269.029 259.726,268.790 259.799,265.842 259.978 C 262.252 260.197,259.328 259.723,257.936 258.696 C 257.400 258.301,256.811 257.978,256.627 257.978 C 256.251 257.978,254.682 256.428,254.682 256.057 C 254.682 255.925,254.345 255.416,253.933 254.927 C 252.265 252.945,253.052 251.384,255.715 251.390 C 258.394 251.396,258.816 251.587,259.609 253.151 C 260.682 255.269,263.781 256.119,266.745 255.109 C 270.472 253.839,269.436 249.820,265.169 248.992 C 264.262 248.817,262.846 248.413,262.022 248.096 C 261.199 247.778,260.120 247.429,259.625 247.320 C 257.662 246.887,254.861 244.494,254.525 242.963 C 254.421 242.491,254.211 242.027,254.059 241.933 C 253.131 241.359,254.440 236.765,255.891 235.506 C 258.202 233.501,258.675 233.243,260.911 232.767 C 263.908 232.129,264.519 232.129,267.566 232.767 M295.050 232.805 C 296.406 233.130,297.773 233.617,298.086 233.887 C 301.724 237.015,302.850 239.201,303.118 243.655 C 303.280 246.366,303.233 246.978,302.809 247.625 L 302.308 248.390 294.386 248.390 C 287.002 248.390,286.443 248.427,286.168 248.940 C 285.635 249.937,286.525 251.815,288.436 253.726 C 290.380 255.670,295.768 255.594,297.865 253.594 C 299.123 252.394,300.697 252.672,301.834 254.294 L 302.717 255.555 301.506 256.766 C 300.840 257.433,300.163 257.978,300.002 257.978 C 299.841 257.978,299.213 258.314,298.607 258.726 C 296.522 260.140,289.696 260.489,287.249 259.307 C 284.784 258.116,284.378 257.792,281.736 254.915 C 279.721 252.722,278.964 245.711,280.300 241.619 C 280.712 240.357,281.049 239.201,281.049 239.050 C 281.049 238.668,284.020 235.116,284.611 234.791 C 284.876 234.644,285.381 234.265,285.732 233.948 C 287.323 232.510,291.620 231.983,295.050 232.805 M143.835 233.266 L 144.719 233.723 144.719 246.283 L 144.719 258.842 144.053 259.309 C 143.242 259.877,139.626 259.955,139.086 259.416 C 138.474 258.804,138.580 233.897,139.197 233.280 C 139.816 232.662,142.650 232.653,143.835 233.266 M178.757 237.729 C 177.311 238.266,177.061 238.524,175.907 240.681 C 174.262 243.755,174.465 243.886,180.879 243.892 C 186.384 243.897,186.826 243.529,185.344 240.179 C 184.263 237.734,181.506 236.709,178.757 237.729 M207.790 237.628 C 203.896 238.158,203.144 239.584,203.151 246.426 C 203.158 253.330,204.231 254.981,208.710 254.981 C 212.962 254.981,214.532 252.653,214.532 246.348 L 214.532 242.026 213.460 240.262 C 212.871 239.292,212.163 238.379,211.887 238.233 C 210.821 237.668,209.227 237.433,207.790 237.628 M289.427 237.923 C 286.796 239.084,285.081 243.308,287.079 243.708 C 288.541 244.000,295.606 243.928,296.437 243.612 L 297.183 243.328 296.743 241.442 C 295.903 237.842,292.891 236.394,289.427 237.923 M234.891 247.400 C 231.526 247.924,230.383 253.429,233.382 254.671 C 237.238 256.268,240.884 254.212,241.136 250.297 C 241.333 247.215,240.012 246.602,234.891 247.400 " stroke="none" fill="#ffffff" fill-rule="evenodd"></path></g></svg>